<?xml version="1.0" encoding="UTF-8"?>
<svg id="Camada_2" xmlns="http://www.w3.org/2000/svg" version="1.1" viewBox="0 0 181.61 45.75">
  <!-- Generator: Adobe Illustrator 29.8.4, SVG Export Plug-In . SVG Version: 2.1.1 Build 6)  -->
  <defs>
    <style>
      .st0 {
        fill: #d2a246;
      }

      .st1 {
        fill: #3d4a3e;
      }
    </style>
  </defs>
  <g id="Camada_1-2">
    <path class="st0" d="M22.07,19.21c.9,3.69,3.58,6.77,6.9,8.54.11-3.94.02-7.88.05-11.83.05-3.39-1.34-6.72-3.68-9.16-3.13,3.22-4.47,8.09-3.27,12.44M9.15,4.66c-3.25,1.94-5.6,5.35-6.18,9.09-.6,3.36.23,6.96,2.22,9.74,1.9,2.74,4.92,4.65,8.18,5.31,3.37.67,6.95-.07,9.82-1.94-2.32-2.56-3.92-5.82-4.24-9.28-.49-4.54,1.07-9.27,4.26-12.56-4.09-2.83-9.83-2.95-14.07-.35M9,1.59C14.15-.95,20.71-.39,25.29,3.09,28.43.88,32.32-.31,36.16.07c5.52.42,10.66,3.99,12.98,9.01,1.25,2.55,1.66,5.42,1.55,8.23h-12.09v-2.81c3.09,0,6.18.03,9.27,0-.5-4.22-3.07-8.15-6.85-10.14-4.17-2.31-9.6-2.1-13.52.64,2.75,2.93,4.34,6.92,4.31,10.94v12.75c4.04.95,8.51-.13,11.61-2.91,1.32-1.09,2.28-2.53,3.15-3.98.8.44,1.62.84,2.44,1.25-2.05,4.04-5.86,7.16-10.27,8.25-4.26,1.11-8.99.36-12.65-2.1-.3-.14-.66-.61-1-.3-2.76,1.91-6.09,2.98-9.45,2.89-4.29-.03-8.52-1.94-11.41-5.1C.85,23.11-.65,17.88.26,13.04,1.12,8.12,4.49,3.73,9,1.59"/>
    <g>
      <path class="st1" d="M69.56,2.64c3.3,0,5.9.88,7.81,2.64,1.91,1.76,2.86,4.18,2.86,7.25v14.64h-4.27v-3.3h-.19c-1.84,2.71-4.3,4.07-7.37,4.07-2.62,0-4.81-.78-6.57-2.33s-2.64-3.49-2.64-5.82c0-2.46.93-4.41,2.79-5.87,1.86-1.45,4.34-2.18,7.44-2.18,2.65,0,4.83.48,6.55,1.45v-1.02c0-1.55-.61-2.87-1.84-3.95-1.23-1.08-2.67-1.62-4.32-1.62-2.49,0-4.46,1.05-5.92,3.15l-3.93-2.47c2.17-3.1,5.37-4.65,9.6-4.65h0ZM63.79,19.9c0,1.16.49,2.13,1.48,2.91.99.78,2.14,1.16,3.47,1.16,1.87,0,3.55-.69,5.02-2.08,1.47-1.39,2.21-3.02,2.21-4.9-1.39-1.1-3.33-1.65-5.82-1.65-1.81,0-3.32.44-4.53,1.31-1.21.87-1.82,1.96-1.82,3.25h-.01Z"/>
      <path class="st1" d="M103.21,20.58c0,2.07-.91,3.81-2.71,5.24-1.81,1.42-4.09,2.13-6.84,2.13-2.39,0-4.49-.62-6.3-1.87-1.81-1.24-3.1-2.89-3.88-4.92l3.98-1.7c.58,1.42,1.43,2.53,2.55,3.32,1.12.79,2.33,1.19,3.66,1.19,1.42,0,2.61-.31,3.56-.92s1.43-1.34,1.43-2.18c0-1.52-1.16-2.63-3.49-3.35l-4.07-1.02c-4.62-1.16-6.93-3.39-6.93-6.69,0-2.17.88-3.9,2.64-5.21s4.02-1.96,6.76-1.96c2.1,0,4,.5,5.7,1.5s2.89,2.34,3.56,4.02l-3.98,1.65c-.45-1-1.19-1.79-2.21-2.35s-2.16-.85-3.42-.85c-1.16,0-2.21.29-3.13.87s-1.38,1.29-1.38,2.13c0,1.36,1.28,2.33,3.83,2.91l3.59.92c4.72,1.16,7.08,3.54,7.08,7.13h0Z"/>
      <path class="st1" d="M119.21,27.95c-1.75,0-3.34-.37-4.78-1.12-1.44-.74-2.55-1.73-3.32-2.96h-.19l.19,3.3v10.47h-4.46V3.42h4.27v3.3h.19c.78-1.23,1.88-2.21,3.32-2.96,1.44-.74,3.03-1.12,4.78-1.12,3.14,0,5.79,1.23,7.95,3.69,2.23,2.49,3.35,5.48,3.35,8.97s-1.12,6.51-3.35,8.97c-2.17,2.46-4.82,3.69-7.95,3.69h0ZM118.48,23.88c2.13,0,3.93-.81,5.38-2.42,1.45-1.58,2.18-3.64,2.18-6.16s-.73-4.54-2.18-6.16-3.25-2.42-5.38-2.42-3.98.81-5.43,2.42c-1.42,1.62-2.13,3.67-2.13,6.16s.71,4.59,2.13,6.21c1.45,1.58,3.26,2.38,5.43,2.38h0Z"/>
      <path class="st1" d="M145.25,27.95c-3.49,0-6.37-1.2-8.63-3.59-2.26-2.39-3.39-5.41-3.39-9.07s1.1-6.63,3.3-9.04c2.2-2.41,5.01-3.61,8.44-3.61s6.33,1.14,8.41,3.42c2.08,2.28,3.13,5.47,3.13,9.58l-.05.48h-18.67c.06,2.33.84,4.2,2.33,5.62,1.49,1.42,3.26,2.13,5.33,2.13,2.84,0,5.07-1.42,6.69-4.27l3.98,1.94c-1.07,2-2.55,3.57-4.44,4.7s-4.03,1.7-6.42,1.7h-.01ZM138.12,12.43h13.62c-.13-1.65-.8-3.01-2.01-4.1-1.21-1.08-2.84-1.62-4.87-1.62-1.68,0-3.13.52-4.34,1.55-1.21,1.03-2.01,2.42-2.4,4.17h0Z"/>
      <path class="st1" d="M160.57,3.42h4.27v3.3h.19c.68-1.16,1.72-2.13,3.13-2.91s2.87-1.16,4.39-1.16c2.91,0,5.15.83,6.72,2.5s2.35,4.03,2.35,7.1v14.93h-4.46v-14.64c-.1-3.88-2.05-5.82-5.87-5.82-1.78,0-3.27.72-4.46,2.16-1.2,1.44-1.79,3.16-1.79,5.16v13.14h-4.46V3.42h-.01Z"/>
    </g>
    <g>
      <path class="st1" d="M119.87,43.06c-.97,0-1.77-.33-2.39-1-.63-.66-.94-1.5-.94-2.51s.3-1.84.91-2.51,1.39-1,2.34-1,1.75.32,2.33.95.87,1.52.87,2.66v.13h-5.19c.02.65.23,1.17.65,1.56.41.39.91.59,1.48.59.79,0,1.41-.39,1.86-1.18l1.1.54c-.3.56-.71.99-1.23,1.3-.52.31-1.12.47-1.78.47,0,0-.01,0-.01,0ZM117.89,38.75h3.78c-.04-.46-.22-.84-.56-1.14s-.79-.45-1.35-.45c-.47,0-.87.14-1.2.43-.34.29-.56.67-.67,1.16Z"/>
      <path class="st1" d="M129.23,41.01c0,.57-.25,1.06-.75,1.45s-1.13.59-1.9.59c-.66,0-1.25-.17-1.75-.52-.5-.34-.86-.8-1.08-1.36l1.1-.47c.16.39.4.7.71.92.31.22.65.33,1.02.33.39,0,.72-.08.99-.26.26-.17.4-.37.4-.61,0-.42-.32-.73-.97-.93l-1.13-.28c-1.28-.32-1.92-.94-1.92-1.86,0-.6.24-1.08.73-1.45.49-.36,1.11-.54,1.88-.54.58,0,1.11.14,1.58.42.47.28.8.65.99,1.12l-1.1.46c-.13-.28-.33-.5-.61-.65-.28-.16-.6-.24-.95-.24-.32,0-.61.08-.87.24s-.38.36-.38.59c0,.38.35.65,1.06.81l1,.26c1.31.32,1.96.98,1.96,1.98h0Z"/>
      <path class="st1" d="M132.85,42.95c-.54,0-.98-.17-1.34-.5-.35-.33-.54-.79-.54-1.39v-3.69h-1.16v-1.13h1.16v-2.02h1.24v2.02h1.61v1.13h-1.61v3.28c0,.44.08.74.26.89s.36.24.58.24c.1,0,.2,0,.29-.03s.18-.05.26-.09l.39,1.1c-.32.12-.7.17-1.13.17v.02h0Z"/>
      <path class="st1" d="M137.37,36.04c.91,0,1.64.24,2.17.73.53.49.79,1.16.79,2.01v4.06h-1.18v-.91h-.05c-.51.75-1.19,1.13-2.04,1.13-.73,0-1.33-.22-1.82-.65s-.73-.97-.73-1.61c0-.68.26-1.22.77-1.63.52-.4,1.2-.61,2.06-.61.73,0,1.34.13,1.82.4v-.28c0-.43-.17-.8-.51-1.1s-.74-.45-1.2-.45c-.69,0-1.24.29-1.64.87l-1.09-.69c.6-.86,1.49-1.29,2.66-1.29v.02h-.01ZM135.76,40.82c0,.32.14.59.41.81s.59.32.96.32c.52,0,.98-.19,1.39-.58.41-.39.61-.84.61-1.36-.39-.3-.92-.46-1.61-.46-.5,0-.92.12-1.26.36s-.5.54-.5.9h0Z"/>
      <path class="st1" d="M142.96,42.84h-1.24v-6.59h1.18v.91h.05c.19-.32.48-.59.87-.81s.78-.32,1.16-.32c.48,0,.91.11,1.28.34s.64.53.81.93c.55-.84,1.3-1.26,2.27-1.26.76,0,1.35.23,1.76.7.41.47.62,1.13.62,1.99v4.12h-1.24v-3.93c0-.62-.11-1.06-.34-1.34s-.6-.41-1.13-.41c-.48,0-.87.2-1.2.6s-.48.88-.48,1.43v3.64h-1.24v-3.93c0-.62-.11-1.06-.34-1.34s-.6-.41-1.13-.41c-.48,0-.87.2-1.2.6s-.48.88-.48,1.43v3.64h.02Z"/>
      <path class="st1" d="M156.61,43.06c-.48,0-.93-.1-1.32-.31s-.71-.48-.92-.82h-.05l.05.91v2.9h-1.24v-9.49h1.18v.91h.05c.22-.34.52-.61.92-.82s.84-.31,1.32-.31c.87,0,1.6.34,2.21,1.02.62.69.93,1.52.93,2.49s-.31,1.81-.93,2.49c-.6.68-1.34,1.02-2.21,1.02h.01ZM156.41,41.93c.59,0,1.09-.22,1.49-.67.4-.44.61-1.01.61-1.71s-.2-1.26-.61-1.71c-.4-.45-.9-.67-1.49-.67s-1.1.22-1.51.67c-.39.45-.59,1.02-.59,1.71s.2,1.27.59,1.72c.4.44.91.66,1.51.66Z"/>
      <path class="st1" d="M163.37,36.04c.91,0,1.64.24,2.17.73.53.49.79,1.16.79,2.01v4.06h-1.18v-.91h-.05c-.51.75-1.19,1.13-2.04,1.13-.73,0-1.33-.22-1.82-.65s-.73-.97-.73-1.61c0-.68.26-1.22.77-1.63.52-.4,1.2-.61,2.06-.61.73,0,1.34.13,1.82.4v-.28c0-.43-.17-.8-.51-1.1s-.74-.45-1.2-.45c-.69,0-1.24.29-1.64.87l-1.09-.69c.6-.86,1.49-1.29,2.66-1.29v.02h-.01ZM161.77,40.82c0,.32.14.59.41.81s.59.32.96.32c.52,0,.98-.19,1.39-.58.41-.39.61-.84.61-1.36-.39-.3-.92-.46-1.61-.46-.5,0-.92.12-1.26.36s-.5.54-.5.9h0Z"/>
      <path class="st1" d="M168.97,42.84h-1.24v-6.59h1.18v1.08h.05c.13-.35.38-.65.77-.89s.77-.37,1.15-.37.66.05.91.16l-.38,1.2c-.15-.06-.39-.09-.73-.09-.47,0-.87.19-1.22.56s-.52.82-.52,1.32v3.63h.03Z"/>
      <path class="st1" d="M174.21,33.98c0,.24-.09.45-.26.62s-.38.26-.62.26-.45-.08-.62-.26c-.17-.17-.26-.38-.26-.62s.09-.45.26-.62.38-.26.62-.26.45.09.62.26.26.38.26.62ZM173.96,36.25v6.59h-1.24v-6.59h1.24Z"/>
      <path class="st1" d="M178.01,36.04c.91,0,1.64.24,2.17.73.53.49.79,1.16.79,2.01v4.06h-1.18v-.91h-.05c-.51.75-1.19,1.13-2.04,1.13-.73,0-1.33-.22-1.82-.65s-.73-.97-.73-1.61c0-.68.26-1.22.77-1.63.52-.4,1.2-.61,2.06-.61.73,0,1.34.13,1.82.4v-.28c0-.43-.17-.8-.51-1.1s-.74-.45-1.2-.45c-.69,0-1.24.29-1.64.87l-1.09-.69c.6-.86,1.49-1.29,2.66-1.29v.02h-.01ZM176.41,40.82c0,.32.14.59.41.81s.59.32.96.32c.52,0,.98-.19,1.39-.58.41-.39.61-.84.61-1.36-.39-.3-.92-.46-1.61-.46-.5,0-.92.12-1.26.36s-.5.54-.5.9h0Z"/>
    </g>
  </g>
</svg>