<svg xmlns="http://www.w3.org/2000/svg" xmlns:xlink="http://www.w3.org/1999/xlink" id="Layer_1" x="0px" y="0px" viewBox="0 0 56.7 56.7" style="enable-background:new 0 0 56.7 56.7;" xml:space="preserve"><style type="text/css">	.st0{fill:#00BCEE;}	.st1{enable-background:new    ;}	.st2{fill:#1F438C;}</style><path class="st0" d="M23.2,16.4c2.6-0.4,5.2-0.5,7.7-0.3c6.1,0.4,12.3,2.6,16.9,6.8c3,2.8,5.3,6.6,5.3,10.7 c-2.3-7.7-10.8-12-18.1-13.5c-0.8-0.2-1.6-0.3-2.4-0.4c-8.1-1-17.3,0.8-23.6,6.2c-1.4,1.2-2.6,2.6-3.6,4.1c-0.8,1.2-1.4,2.5-1.8,3.8 c0-4,2-7.8,4.8-10.5C12.4,19.5,17.7,17.2,23.2,16.4z"></path><g class="st1">	<path class="st0" d="M10.1,28.9v7c0,0.3,0,0.5,0.1,0.7c0,0.1,0.1,0.2,0.2,0.2c0.1,0.1,0.3,0.1,0.6,0.1V37H8.3v-0.2  c0.2,0,0.4,0,0.5-0.1S9,36.6,9,36.5c0-0.1,0.1-0.3,0.1-0.7v-4.8c0-0.6,0-1,0-1.1c0-0.1-0.1-0.2-0.1-0.3c-0.1,0-0.1-0.1-0.2-0.1  c-0.1,0-0.2,0-0.4,0.1l-0.1-0.2l1.6-0.6H10.1z"></path>	<path class="st0" d="M13.3,31.6v4.2c0,0.3,0,0.5,0.1,0.7c0,0.1,0.1,0.2,0.2,0.2c0.1,0.1,0.3,0.1,0.5,0.1V37h-2.6v-0.2  c0.3,0,0.4,0,0.5-0.1s0.2-0.1,0.2-0.2c0.1-0.1,0.1-0.3,0.1-0.7v-2c0-0.6,0-0.9-0.1-1.1c0-0.1-0.1-0.2-0.1-0.3  c-0.1,0-0.1-0.1-0.2-0.1c-0.1,0-0.2,0-0.4,0.1l-0.1-0.2l1.6-0.6H13.3z M12.8,28.9c0.2,0,0.3,0.1,0.4,0.2c0.1,0.1,0.2,0.2,0.2,0.4  c0,0.2-0.1,0.3-0.2,0.4c-0.1,0.1-0.2,0.2-0.4,0.2s-0.3-0.1-0.4-0.2c-0.1-0.1-0.2-0.3-0.2-0.4c0-0.2,0.1-0.3,0.2-0.4  C12.5,28.9,12.7,28.9,12.8,28.9z"></path>	<path class="st0" d="M16.8,32.2v3.5c0,0.5,0.1,0.8,0.2,0.9c0.1,0.2,0.3,0.3,0.6,0.3H18V37h-3.1v-0.2h0.2c0.2,0,0.3,0,0.4-0.1  c0.1-0.1,0.2-0.2,0.3-0.3s0.1-0.4,0.1-0.8v-3.5h-1v-0.4h1v-0.3c0-0.5,0.1-1,0.3-1.3c0.2-0.4,0.4-0.7,0.8-0.9  c0.3-0.2,0.7-0.3,1.2-0.3c0.4,0,0.8,0.1,1.1,0.4c0.2,0.2,0.3,0.4,0.3,0.6c0,0.1,0,0.2-0.1,0.3c-0.1,0.1-0.2,0.2-0.3,0.2  c-0.1,0-0.2,0-0.3-0.1c-0.1-0.1-0.2-0.2-0.4-0.4c-0.1-0.2-0.3-0.3-0.4-0.4c-0.1-0.1-0.3-0.1-0.4-0.1c-0.2,0-0.3,0-0.4,0.1  c-0.1,0.1-0.2,0.2-0.3,0.4c-0.1,0.2-0.1,0.7-0.1,1.5v0.4h1.4v0.4H16.8z"></path>	<path class="st0" d="M19.6,33.8c0,0.8,0.2,1.4,0.6,1.8c0.4,0.4,0.8,0.7,1.3,0.7c0.3,0,0.6-0.1,0.9-0.3c0.3-0.2,0.5-0.5,0.6-1  l0.2,0.1c-0.1,0.5-0.3,1-0.7,1.4c-0.4,0.4-0.9,0.6-1.5,0.6c-0.6,0-1.2-0.2-1.6-0.7s-0.7-1.2-0.7-2c0-0.9,0.2-1.6,0.7-2.1  s1-0.8,1.7-0.8c0.6,0,1.1,0.2,1.5,0.6s0.6,0.9,0.6,1.6H19.6z M19.6,33.4H22c0-0.3-0.1-0.6-0.1-0.7c-0.1-0.2-0.2-0.4-0.4-0.5  c-0.2-0.1-0.4-0.2-0.6-0.2c-0.3,0-0.6,0.1-0.9,0.4C19.8,32.7,19.6,33,19.6,33.4z"></path></g><g class="st1">	<path class="st2" d="M27.3,31.6v1.8h-0.2c-0.1-0.6-0.3-0.9-0.6-1.1c-0.2-0.2-0.5-0.3-0.9-0.3c-0.3,0-0.5,0.1-0.6,0.2  c-0.2,0.1-0.2,0.3-0.2,0.5c0,0.2,0.1,0.4,0.2,0.6c0.1,0.2,0.4,0.3,0.7,0.5l0.8,0.4c0.8,0.4,1.2,0.9,1.2,1.5c0,0.5-0.2,0.9-0.5,1.2  c-0.4,0.3-0.8,0.4-1.2,0.4c-0.3,0-0.7-0.1-1.1-0.2c-0.1,0-0.2-0.1-0.3-0.1c-0.1,0-0.2,0-0.2,0.1h-0.2v-1.9h0.2  c0.1,0.5,0.3,0.9,0.6,1.2s0.6,0.4,1,0.4c0.3,0,0.5-0.1,0.6-0.2c0.2-0.2,0.2-0.3,0.2-0.6c0-0.3-0.1-0.5-0.3-0.7s-0.6-0.4-1.1-0.7  c-0.6-0.3-0.9-0.5-1.1-0.7c-0.2-0.2-0.3-0.5-0.3-0.8c0-0.4,0.1-0.8,0.4-1.1c0.3-0.3,0.7-0.4,1.1-0.4c0.2,0,0.5,0,0.8,0.1  c0.2,0.1,0.3,0.1,0.4,0.1c0.1,0,0.1,0,0.1,0c0,0,0.1-0.1,0.1-0.2H27.3z"></path>	<path class="st2" d="M31.5,36.3c-0.5,0.4-0.9,0.7-1,0.7c-0.2,0.1-0.4,0.1-0.7,0.1c-0.4,0-0.7-0.1-0.9-0.4c-0.2-0.2-0.4-0.6-0.4-1  c0-0.3,0.1-0.5,0.2-0.7c0.2-0.3,0.4-0.5,0.8-0.7c0.4-0.2,1-0.5,1.9-0.8v-0.2c0-0.5-0.1-0.9-0.2-1.1c-0.2-0.2-0.4-0.3-0.7-0.3  c-0.2,0-0.4,0.1-0.6,0.2c-0.1,0.1-0.2,0.3-0.2,0.4l0,0.3c0,0.2,0,0.3-0.1,0.4c-0.1,0.1-0.2,0.1-0.4,0.1c-0.1,0-0.3,0-0.3-0.1  c-0.1-0.1-0.1-0.2-0.1-0.4c0-0.3,0.2-0.6,0.5-0.9c0.3-0.3,0.8-0.4,1.4-0.4c0.5,0,0.8,0.1,1.1,0.2c0.2,0.1,0.4,0.3,0.5,0.6  c0.1,0.2,0.1,0.5,0.1,1v1.8c0,0.5,0,0.8,0,0.9c0,0.1,0.1,0.2,0.1,0.2s0.1,0.1,0.2,0.1c0.1,0,0.1,0,0.2,0c0.1,0,0.2-0.2,0.5-0.4v0.3  c-0.4,0.6-0.8,0.9-1.2,0.9c-0.2,0-0.3-0.1-0.4-0.2C31.6,36.8,31.5,36.6,31.5,36.3z M31.5,35.9v-2c-0.6,0.2-1,0.4-1.1,0.5  c-0.3,0.2-0.5,0.3-0.6,0.5s-0.2,0.4-0.2,0.6c0,0.3,0.1,0.5,0.2,0.7c0.2,0.2,0.4,0.3,0.6,0.3C30.6,36.5,31,36.3,31.5,35.9z"></path>	<path class="st2" d="M33.5,31.8h2.5V32h-0.2c-0.1,0-0.3,0-0.3,0.1c-0.1,0.1-0.1,0.2-0.1,0.3c0,0.1,0,0.3,0.1,0.5l1.2,2.9l1.2-3  c0.1-0.2,0.1-0.4,0.1-0.5c0-0.1,0-0.1,0-0.1c0-0.1-0.1-0.1-0.2-0.1c-0.1,0-0.2,0-0.4,0v-0.2h1.7V32c-0.2,0-0.3,0.1-0.4,0.1  c-0.1,0.1-0.3,0.3-0.4,0.6l-1.9,4.5h-0.2l-1.9-4.4c-0.1-0.2-0.2-0.4-0.2-0.4s-0.2-0.2-0.3-0.2c-0.1,0-0.2-0.1-0.4-0.1V31.8z"></path>	<path class="st2" d="M40.5,33.8c0,0.8,0.2,1.4,0.6,1.8s0.8,0.7,1.3,0.7c0.3,0,0.6-0.1,0.9-0.3c0.3-0.2,0.5-0.5,0.6-1l0.2,0.1  c-0.1,0.5-0.3,1-0.7,1.4C43,37,42.5,37.2,42,37.2c-0.6,0-1.2-0.2-1.6-0.7s-0.7-1.2-0.7-2c0-0.9,0.2-1.6,0.7-2.1s1-0.8,1.7-0.8  c0.6,0,1.1,0.2,1.5,0.6c0.4,0.4,0.6,0.9,0.6,1.6H40.5z M40.5,33.4h2.4c0-0.3-0.1-0.6-0.1-0.7c-0.1-0.2-0.2-0.4-0.4-0.5  C42.2,32.1,42,32,41.8,32c-0.3,0-0.6,0.1-0.9,0.4C40.7,32.7,40.5,33,40.5,33.4z"></path>	<path class="st2" d="M46.4,31.6v1.2c0.4-0.8,0.9-1.2,1.4-1.2c0.2,0,0.4,0.1,0.5,0.2c0.1,0.1,0.2,0.3,0.2,0.4c0,0.1,0,0.3-0.1,0.4  s-0.2,0.2-0.4,0.2c-0.1,0-0.3-0.1-0.5-0.2c-0.2-0.1-0.3-0.2-0.4-0.2c-0.1,0-0.1,0-0.2,0.1c-0.2,0.2-0.3,0.4-0.5,0.8v2.5  c0,0.3,0,0.5,0.1,0.7c0,0.1,0.1,0.2,0.3,0.3c0.1,0.1,0.3,0.1,0.5,0.1V37h-2.7v-0.2c0.3,0,0.5,0,0.6-0.1c0.1-0.1,0.2-0.2,0.2-0.3  c0-0.1,0-0.3,0-0.6v-2c0-0.6,0-1,0-1.1c0-0.1-0.1-0.2-0.1-0.3c-0.1-0.1-0.1-0.1-0.2-0.1c-0.1,0-0.3,0-0.4,0.1l-0.1-0.2l1.6-0.6  H46.4z"></path></g><g>	<path class="st2" d="M50.5,31.3c-0.6,0-1.1,0.5-1.1,1.1s0.5,1.1,1.1,1.1s1.1-0.5,1.1-1.1S51.1,31.3,50.5,31.3z M50.5,33.3  c-0.5,0-0.9-0.4-0.9-0.9s0.4-0.9,0.9-0.9s0.9,0.4,0.9,0.9S51,33.3,50.5,33.3z"></path>	<path class="st2" d="M50.8,32.7c0-0.1-0.1-0.2-0.1-0.2c0.1-0.1,0.2-0.2,0.2-0.3c0-0.1,0-0.2-0.1-0.2c-0.1-0.1-0.2-0.1-0.3-0.1  c-0.1,0-0.2,0-0.3,0l0,0V33h0.2v-0.5h0.1c0.1,0,0.2,0.1,0.2,0.2c0,0.2,0.1,0.2,0.1,0.3l0,0h0.2l0,0C50.9,32.9,50.8,32.8,50.8,32.7z   M50.7,32.1c0,0.1-0.1,0.2-0.2,0.2h-0.1V32c0,0,0.1,0,0.1,0C50.5,32,50.7,32,50.7,32.1z"></path></g></svg>