<svg xmlns="http://www.w3.org/2000/svg" xmlns:xlink="http://www.w3.org/1999/xlink" id="Layer_1" x="0px" y="0px" viewBox="0 0 56.7 56.7" style="enable-background:new 0 0 56.7 56.7;" xml:space="preserve"><style type="text/css">	.st0{fill-rule:evenodd;clip-rule:evenodd;fill:#ED6723;}</style><g>	<g>		<g transform="translate(-40.000000, -27.000000)">			<g transform="translate(39.000000, 0.000000)">				<g transform="translate(0.000000, 27.000000)">					<path class="st0" d="M12.7,27.1c0-0.3,0.1-0.4,0.2-0.6c0.1-0.1,0.4-0.2,0.6-0.2c0.2,0,0.3,0,0.5,0.1c0.1,0,0.2,0.1,0.3,0.1v3.6      c0,0.6,0.1,1.1,0.4,1.4c0.3,0.3,0.7,0.5,1.3,0.5c0.6,0,1-0.2,1.3-0.5c0.3-0.3,0.4-0.8,0.4-1.4v-3c0-0.3,0.1-0.4,0.2-0.6      c0.1-0.1,0.3-0.2,0.6-0.2c0.2,0,0.3,0,0.5,0.1c0.1,0,0.2,0.1,0.3,0.1v3.9c0,0.5-0.1,0.9-0.2,1.3c-0.2,0.4-0.4,0.7-0.7,0.9      c-0.3,0.3-0.7,0.4-1.1,0.6c-0.4,0.1-0.9,0.2-1.4,0.2c-0.5,0-0.9-0.1-1.4-0.2c-0.4-0.1-0.8-0.3-1.1-0.6      c-0.3-0.3-0.5-0.6-0.7-0.9c-0.2-0.4-0.2-0.8-0.2-1.3V27.1z"></path>					<path class="st0" d="M20.6,25.2c0-0.3,0.1-0.4,0.2-0.6c0.1-0.1,0.3-0.2,0.6-0.2c0.2,0,0.3,0,0.5,0.1c0.1,0,0.2,0.1,0.3,0.1v1.8      h2c0.3,0,0.5,0.1,0.6,0.2c0.1,0.1,0.2,0.3,0.2,0.5c0,0.2,0,0.3-0.1,0.4c0,0.1-0.1,0.2-0.1,0.3h-2.6v3.1c0,0.2,0,0.4,0.1,0.6      c0.1,0.2,0.2,0.3,0.3,0.4c0.1,0.1,0.2,0.2,0.4,0.2c0.2,0,0.3,0.1,0.5,0.1c0.3,0,0.5,0,0.7-0.1c0.2-0.1,0.4-0.2,0.5-0.2l0.6,1      c-0.1,0.1-0.2,0.1-0.3,0.2c-0.1,0.1-0.3,0.2-0.5,0.2c-0.2,0.1-0.4,0.1-0.6,0.2c-0.2,0-0.5,0.1-0.8,0.1c-0.8,0-1.4-0.2-1.8-0.6      c-0.4-0.4-0.6-1-0.6-1.6V25.2z"></path>					<path class="st0" d="M29.6,32.1c0.3,0,0.6-0.1,0.9-0.2c0.3-0.1,0.5-0.3,0.7-0.5c0.2-0.2,0.3-0.4,0.4-0.7      c0.1-0.3,0.2-0.6,0.2-0.9c0-0.3-0.1-0.6-0.2-0.9c-0.1-0.3-0.2-0.5-0.4-0.7c-0.2-0.2-0.4-0.4-0.7-0.5c-0.3-0.1-0.5-0.2-0.9-0.2      c-0.3,0-0.6,0.1-0.9,0.2c-0.3,0.1-0.5,0.3-0.7,0.5c-0.2,0.2-0.3,0.4-0.4,0.7c-0.1,0.3-0.2,0.6-0.2,0.9c0,0.3,0.1,0.6,0.2,0.9      c0.1,0.3,0.3,0.5,0.4,0.7c0.2,0.2,0.4,0.3,0.7,0.5C29,32,29.3,32.1,29.6,32.1L29.6,32.1z M25.9,23.9c0-0.2,0.1-0.4,0.2-0.5      c0.1-0.1,0.4-0.2,0.6-0.2c0.2,0,0.3,0,0.5,0.1c0.1,0,0.2,0.1,0.3,0.1v3.9c0.2-0.3,0.5-0.5,0.9-0.7c0.4-0.2,0.9-0.3,1.4-0.3      c0.5,0,1,0.1,1.4,0.3c0.4,0.2,0.8,0.4,1.1,0.8c0.3,0.3,0.6,0.7,0.7,1.1c0.2,0.4,0.3,0.9,0.3,1.5c0,0.5-0.1,1-0.3,1.5      c-0.2,0.4-0.4,0.8-0.8,1.2c-0.3,0.3-0.7,0.6-1.2,0.8c-0.5,0.2-0.9,0.3-1.5,0.3c-0.5,0-1-0.1-1.5-0.2c-0.5-0.2-0.8-0.4-1.2-0.7      c-0.3-0.3-0.6-0.7-0.8-1.2c-0.2-0.5-0.3-1.1-0.3-1.7V23.9z"></path>					<path class="st0" d="M34.2,28.8c0-0.8,0.3-1.5,0.8-2c0.5-0.5,1.2-0.7,2.1-0.7c0.6,0,1,0.1,1.4,0.2c0.4,0.2,0.5,0.4,0.5,0.7      c0,0.2,0,0.3-0.1,0.5c-0.1,0.1-0.2,0.2-0.2,0.3c-0.2-0.1-0.3-0.1-0.6-0.2c-0.2-0.1-0.5-0.1-0.8-0.1c-1.1,0-1.6,0.6-1.6,1.7v4      h-1.6V28.8z"></path>					<path class="st0" d="M44.3,30.2c-0.1,0-0.3,0-0.5-0.1c-0.3,0-0.6-0.1-1.1-0.1c-0.6,0-1.1,0.1-1.4,0.3c-0.3,0.2-0.4,0.5-0.4,0.9      c0,0.2,0,0.3,0.1,0.5c0.1,0.1,0.2,0.3,0.3,0.3c0.1,0.1,0.3,0.2,0.6,0.2c0.3,0.1,0.6,0.1,0.9,0.1c0.4,0,0.8,0,1,0      c0.2,0,0.4-0.1,0.5-0.1V30.2z M45.8,33.2c-0.1,0-0.2,0-0.4,0.1c-0.2,0-0.4,0-0.7,0.1c-0.3,0-0.6,0-0.9,0.1c-0.3,0-0.7,0-1,0      c-0.7,0-1.3-0.1-1.7-0.2c-0.5-0.1-0.8-0.3-1.1-0.5c-0.3-0.2-0.4-0.4-0.5-0.7c-0.1-0.3-0.1-0.5-0.1-0.8c0-0.4,0.1-0.7,0.2-1      c0.1-0.3,0.3-0.5,0.6-0.7c0.3-0.2,0.6-0.3,1-0.4C41.5,29,42,29,42.6,29c0.3,0,0.7,0,1,0c0.3,0,0.5,0,0.7,0.1      c0-0.3-0.1-0.6-0.2-0.8c-0.1-0.2-0.2-0.4-0.4-0.5c-0.2-0.1-0.4-0.2-0.7-0.2c-0.3,0-0.5-0.1-0.8-0.1c-0.5,0-0.9,0.1-1.3,0.2      c-0.3,0.1-0.5,0.2-0.6,0.3c-0.1,0-0.1-0.1-0.2-0.3c-0.1-0.1-0.1-0.3-0.1-0.5c0-0.1,0-0.3,0.1-0.4c0.1-0.1,0.2-0.2,0.4-0.3      s0.4-0.2,0.7-0.2c0.3-0.1,0.7-0.1,1.1-0.1c0.5,0,1,0.1,1.5,0.2c0.4,0.1,0.8,0.3,1.1,0.5c0.3,0.2,0.6,0.5,0.7,0.9      c0.2,0.4,0.3,0.8,0.3,1.4V33.2z"></path>					<path class="st0" d="M47.2,27.1c0-0.3,0.1-0.4,0.2-0.6c0.1-0.1,0.4-0.2,0.6-0.2c0.2,0,0.3,0,0.5,0.1c0.1,0,0.2,0.1,0.3,0.1v6.7      h-1.6V27.1z M48,23.3c0.3,0,0.5,0.1,0.7,0.3c0.2,0.2,0.3,0.4,0.3,0.7c0,0.3-0.1,0.5-0.3,0.7c-0.2,0.2-0.4,0.3-0.7,0.3      c-0.3,0-0.5-0.1-0.7-0.3c-0.2-0.2-0.3-0.4-0.3-0.7c0-0.3,0.1-0.5,0.3-0.7C47.5,23.4,47.7,23.3,48,23.3L48,23.3z"></path>					<path class="st0" d="M50.2,29.1c0-0.5,0.1-0.9,0.3-1.2c0.2-0.4,0.4-0.7,0.7-0.9c0.3-0.3,0.6-0.4,1.1-0.6      c0.4-0.1,0.9-0.2,1.3-0.2c0.5,0,0.9,0.1,1.3,0.2c0.4,0.1,0.8,0.3,1.1,0.6c0.3,0.3,0.5,0.6,0.7,0.9c0.2,0.4,0.2,0.8,0.2,1.2v4.1      h-1.6v-3.8c0-0.6-0.2-1.1-0.5-1.4c-0.3-0.3-0.7-0.5-1.3-0.5c-0.6,0-1,0.2-1.3,0.5c-0.3,0.3-0.4,0.8-0.4,1.4v3.8h-1.6V29.1z"></path>					<path class="st0" d="M9.2,31.9c-0.3,0.3-0.6,0.5-1,0.7c-0.4,0.2-0.8,0.2-1.3,0.2c-0.5,0-0.9-0.1-1.3-0.2      c-0.4-0.2-0.7-0.4-1-0.7c-0.3-0.3-0.5-0.6-0.7-1c-0.2-0.4-0.2-0.8-0.3-1.2h0.8c0,0.1,0,0.3,0.1,0.4c0.1,0.1,0.1,0.3,0.3,0.4      c0.1,0.1,0.2,0.2,0.4,0.2c0.1,0.1,0.3,0.1,0.5,0.1c0.2,0,0.3,0,0.5-0.1c0.1-0.1,0.3-0.1,0.4-0.2c0.1-0.1,0.2-0.2,0.3-0.4      c0-0.1,0.1-0.2,0.1-0.3H7C7,29.8,7,29.9,7,30c0.1,0.1,0.1,0.3,0.3,0.4c0.1,0.1,0.2,0.2,0.4,0.2c0.1,0.1,0.3,0.1,0.5,0.1      c0.2,0,0.3,0,0.5-0.1c0.1-0.1,0.3-0.1,0.4-0.2c0.1-0.1,0.2-0.2,0.3-0.4c0.1-0.1,0.1-0.2,0.1-0.4h0.8c0,0.4-0.1,0.9-0.2,1.2      C9.7,31.3,9.5,31.6,9.2,31.9 M6.2,29.5c0,0.1,0,0.2-0.1,0.3C6.1,29.9,6.1,30,6,30s-0.1,0.1-0.2,0.1c-0.1,0-0.2,0.1-0.3,0.1      c-0.1,0-0.2,0-0.3-0.1c-0.1,0-0.2-0.1-0.2-0.1C5,30,4.9,29.9,4.9,29.8c0-0.1-0.1-0.2-0.1-0.3c0-0.1,0-0.2,0.1-0.3      C4.9,29.2,5,29.1,5,29c0.1-0.1,0.1-0.1,0.2-0.1c0.1,0,0.2-0.1,0.3-0.1c0.1,0,0.2,0,0.3,0.1C5.9,28.9,6,29,6,29      c0.1,0.1,0.1,0.1,0.2,0.2C6.2,29.4,6.2,29.4,6.2,29.5 M8.9,29.5c0,0.1,0,0.2-0.1,0.3c0,0.1-0.1,0.2-0.1,0.2      c-0.1,0.1-0.1,0.1-0.2,0.1c-0.1,0-0.2,0.1-0.3,0.1c-0.1,0-0.2,0-0.3-0.1c-0.1,0-0.2-0.1-0.2-0.1c-0.1-0.1-0.1-0.1-0.2-0.2      c0-0.1-0.1-0.2-0.1-0.3c0-0.1,0-0.2,0.1-0.3c0-0.1,0.1-0.2,0.2-0.2c0.1-0.1,0.1-0.1,0.2-0.1c0.1,0,0.2-0.1,0.3-0.1      c0.1,0,0.2,0,0.3,0.1c0.1,0,0.2,0.1,0.2,0.1c0.1,0.1,0.1,0.1,0.1,0.2C8.8,29.4,8.9,29.4,8.9,29.5 M3.8,28.2      c0.6-0.2,1.3-0.4,1.3-0.4C6.8,27.3,7,26.7,7,26.7s0.3,0.6,1.5,1c0,0,0.7,0.2,1.3,0.4c0,0.1,0.1,0.1,0.1,0.2      c0.1,0.3,0.2,0.5,0.2,0.8H9.2l0,0c-0.1-0.1-0.1-0.3-0.3-0.4c-0.1-0.1-0.2-0.2-0.4-0.2c-0.1-0.1-0.3-0.1-0.5-0.1      c-0.2,0-0.3,0-0.5,0.1c-0.1,0.1-0.3,0.1-0.4,0.2c-0.1,0.1-0.2,0.2-0.3,0.4c0,0,0,0.1,0,0.1H6.7c0,0,0-0.1,0-0.1      c-0.1-0.1-0.1-0.3-0.3-0.4c-0.1-0.1-0.2-0.2-0.4-0.2c-0.1-0.1-0.3-0.1-0.5-0.1c-0.2,0-0.3,0-0.5,0.1c-0.1,0.1-0.3,0.1-0.4,0.2      c-0.1,0.1-0.2,0.2-0.3,0.4c0,0,0,0,0,0H3.6C3.6,28.8,3.7,28.5,3.8,28.2C3.8,28.3,3.8,28.2,3.8,28.2 M11.5,26.6      c-0.3-0.6-0.6-1.1-1.1-1.6c-0.5-0.4-1-0.8-1.6-1c-0.6-0.3-1.3-0.4-2-0.4s-1.4,0.1-2,0.4c-0.6,0.3-1.1,0.6-1.6,1      c-0.5,0.4-0.8,1-1.1,1.6c-0.3,0.6-0.4,1.3-0.4,2c0,0.7,0.1,1.4,0.4,2c0.3,0.6,0.6,1.1,1.1,1.6c0.5,0.4,1,0.8,1.6,1      c0.6,0.3,1.3,0.4,2,0.4s1.4-0.1,2-0.4c0.6-0.3,1.1-0.6,1.6-1c0.5-0.4,0.8-1,1.1-1.6c0.3-0.6,0.4-1.3,0.4-2      C11.8,27.9,11.7,27.2,11.5,26.6"></path>				</g>			</g>		</g>	</g></g></svg>