<svg xmlns="http://www.w3.org/2000/svg" id="Layer_1" viewBox="0 0 56.7 56.7"><defs><style>      .st0 {        fill: #213261;      }      .st1 {        fill: #fff;      }      .st2 {        fill: #b41918;      }    </style></defs><path class="st1" d="M29.8,9.4c-.6-.7-1.1-1.4-1.4-2.2-.4.8-.9,1.5-1.4,2.2-3.6,4.2-8.6,5.6-14.1.7v28.8c0,3.3,2.5,4.4,4.8,5.2l1.8.5c2.7.3,5.3,1,8.9,4.8,3.5-3.7,6.2-4.4,8.9-4.8l1.8-.5c2.3-.9,4.8-2,4.8-5.2V10.1c-5.5,5-10.4,3.5-14.1-.7Z"></path><path class="st0" d="M29.8,11.3c-.6-.6-1-1.3-1.4-2-.4.7-.8,1.4-1.4,2-3.3,3.8-9,4.3-12.9,1.2v25.4c0,3,2.3,4,4.4,4.7l1.6.5c2.5.3,4.9.9,8.1,4.3,0,0,0,0,0,0,0,0,0,0,0,0,3.3-3.4,5.7-4,8.1-4.3l1.6-.5c2.1-.8,4.4-1.8,4.4-4.7V12.5c-3.9,3.1-9.5,2.6-12.9-1.2Z"></path><g><path class="st1" d="M31.9,14.2s-4.4-.6-6.5,2.7c-2.1,3.3-.6,6.4-.6,6.4,0,0,4.4.7,6.7-2.9,1.9-3,.4-6.3.4-6.3Z"></path><g><path class="st0" d="M27.3,16.7l2,1c0,0,.1-.2.2-.2l-2-1c0,0-.1.2-.2.2Z"></path><path class="st0" d="M26.6,17.6l1.9,1c0,0,.2-.2.2-.3l-1.9-1c0,0-.1.2-.2.3Z"></path><path class="st0" d="M26.1,18.5l1.8.9c0,0,.1-.2.2-.3l-1.9-1c0,0,0,.2-.1.3Z"></path><path class="st0" d="M29.2,15.1c0,0-.2.1-.3.2l1.9,1c0,0,.2-.1.3-.2l-1.9-1Z"></path><path class="st0" d="M28,16l2,1c0,0,.2-.2.3-.2l-1.9-1c0,0-.2.2-.3.2Z"></path></g><g><path class="st0" d="M30.2,15.7c1.1-1,2-1.6,2-1.6h-.2c0-.1-1,.2-2.3,1.4l.5.2Z"></path><path class="st0" d="M26.9,18.7c-1.4,2.2-2.2,4.7-2.2,4.7h.2c0,.1,1-2.4,2.4-4.5l-.4-.2Z"></path></g></g><g><g><polygon class="st1" points="39.6 15.7 40 17 41.5 17 40.3 18 40.8 19.4 39.6 18.5 38.3 19.4 38.8 18 37.7 17 39.1 17 39.6 15.7"></polygon><polygon class="st1" points="39.6 20.1 40 21.4 41.5 21.4 40.3 22.4 40.8 23.8 39.6 22.9 38.3 23.8 38.8 22.4 37.7 21.4 39.1 21.4 39.6 20.1"></polygon><polygon class="st1" points="34.8 20.1 35.3 21.4 36.8 21.4 35.6 22.4 36.1 23.8 34.8 22.9 33.6 23.8 34.1 22.4 32.9 21.4 34.4 21.4 34.8 20.1"></polygon><polygon class="st1" points="34.8 15.7 35.3 17 36.8 17 35.6 18 36 19.4 34.8 18.5 33.6 19.4 34 18 32.9 17 34.3 17 34.8 15.7"></polygon></g><g><polygon class="st1" points="22.1 15.7 22.5 17 24 17 22.8 18 23.3 19.4 22.1 18.5 20.8 19.4 21.3 18 20.2 17 21.6 17 22.1 15.7"></polygon><polygon class="st1" points="22.1 20.1 22.5 21.4 24 21.4 22.8 22.4 23.3 23.8 22.1 22.9 20.8 23.8 21.3 22.4 20.2 21.4 21.6 21.4 22.1 20.1"></polygon><polygon class="st1" points="17.3 20.1 17.8 21.4 19.3 21.4 18.1 22.4 18.6 23.8 17.3 22.9 16.1 23.8 16.6 22.4 15.4 21.4 16.9 21.4 17.3 20.1"></polygon><polygon class="st1" points="17.3 15.7 17.8 17 19.3 17 18.1 18 18.5 19.4 17.3 18.5 16.1 19.4 16.5 18 15.4 17 16.8 17 17.3 15.7"></polygon></g></g><path class="st1" d="M15.6,24.8v12.2c0,2.7,2.1,3.6,4,4.4l1.5.4c2.2.3,4.4.8,7.3,4,0,0,0,0,0,0,0,0,0,0,0,0,2.9-3.1,5.1-3.7,7.3-4l1.5-.4c1.9-.7,3.9-1.6,4-4.4v-12.2H15.6Z"></path><path class="st2" d="M29.2,26.4h-3.1v1.9h.8v11.1h0c-.5,0-.9,0-.9,0v1.7s1.1.1,1.8.3c.6.2,2.1.9,2.1.9v-1.9s-.3-.2-.8-.4v-6.3h1.2l.3.8h1.3v-1.8h0v-1.8h-1.3l-.3.9h-1.2v-3.6h1.5l.5,1.1h1.5v-3.1h-3.5Z"></path><path class="st2" d="M24.7,26.4h-2.9v1.9h.7v4.7l-2.4-6.8h0s-2.3,0-2.3,0h-.6v1.9h.6v8.5c-.5,0-1,0-1,0l.2,2s1.1,0,1.9.2c.6.2,2.2.8,2.2.8l-.2-2.2s-.3-.2-.8-.4v-4l2.5,7,2.2.7h0v-12.5h.6v-1.9h-.6Z"></path><path class="st2" d="M38.2,34.4v2.8c-.6.1-1.2.3-1.8.4v-9.3l.7-.3v-1.6h-3.6v1.6l.7.3v10.2c-.4.2-.7.4-1,.6v2.2c.7-.4,2.5-1.4,3.4-1.8,1.7-.7,3.5-.8,3.5-.8v-4.3h-1.8Z"></path></svg>