<svg xmlns="http://www.w3.org/2000/svg" xmlns:xlink="http://www.w3.org/1999/xlink" id="Layer_1" x="0px" y="0px" viewBox="0 0 56.7 56.7" style="enable-background:new 0 0 56.7 56.7;" xml:space="preserve"><style type="text/css">	.st0{fill:#F47820;}</style><g>	<g>		<path class="st0" d="M46.5,33.5c0.3-0.3,0.5-0.6,0.8-0.9c0.2-0.2,0.4-0.3,0.7-0.4c0.2-0.1,0.5-0.2,0.7-0.1c0,0.1,0.1,0.3,0.3,0.2   c0.1-0.1,0.2-0.2,0.1-0.4c-0.1-0.2-0.2-0.3-0.4-0.3c-0.2,0-0.3,0-0.5,0c-0.9,0.2-1.4,1.1-2,1.7c-0.4-0.3-0.9-0.7-0.9-1   c0-0.1,0.2-1.1,0.7-1.9c-0.1-0.3-0.6-1-1.1-0.8c-0.2,0.4-0.4,0.8-0.6,1.4c-0.2,0.8,0,1.4,0.8,2c0.3,0.2,0.6,0.4,0.9,0.7   c-0.8,0.9-1.6,1.9-2.1,3c-0.2,0.4-0.3,0.9-0.2,1.3c0.1,0.7,1.1,0.9,2.3,0.2c2.5-1.5,2.1-3.3,1.3-4C47.2,34,46.8,33.7,46.5,33.5    M46.7,35.1c-0.1,1.4-1,1.9-1.3,2.1c-0.7,0.4-2-0.2,0.7-3.1c0,0,0.1-0.2,0.2-0.3C46.7,34.1,46.8,34.5,46.7,35.1"></path>		<path class="st0" d="M13.8,39.9c0.1-0.3,0.3-1.2,0.4-1.8c0.1-0.6,0.3-1.5,0.3-1.8c0.1-0.4,0.1-0.2,0.2,0.3c0.1,0.6,0.1,2.2,0,3   c0,0.1-0.1,0.3,0,0.5c0.5-0.5,0.8-1.4,1-2.1c0.1-0.4,0.3-0.8,0.3-1.1c0-0.4-0.1-0.7-0.1-1.1c0-0.1,0-0.2,0-0.3c0,0,0-0.1-0.1-0.1   c-0.2-0.2-0.4-0.4-0.7-0.4c-0.1,0-0.4,0-0.5,0.1c-0.2,0.3-0.4,1.2-0.5,1.8c-0.1,0.6-0.1,0.7-0.4,2.2c-0.4,1.9-0.9,2.9-1.1,2.9   c-0.3,0-0.5-0.9-0.5-2.2c0-1.2,0.5-3,1-4.6c0.5-1.6,1.2-2.3,1.7-2.8c0.2-0.2,0.3-0.1,0.2,0.3c0.1,0.5,0.5,0,0.5-0.3   c-0.1-1-1.2-0.7-1.4-0.7c-1.4,0.6-2.1,2.3-2.3,2.8c-0.2,0.6-0.6,1.4-0.8,2.2c-0.5,1.7-0.6,3.4-0.4,4.1c0.4,2.1,1.5,1.7,1.8,1.6   C13.3,42.1,13.8,40.3,13.8,39.9"></path>		<path class="st0" d="M15.9,39.3c0.3-1.6,0.3-3,0.2-3.7c-0.5-0.7-1.2-0.6-1.3-0.5c0,0.1,0,0.2,0,0.3c0,0.4-0.1,0.8-0.3,1.2   c0,0.1,0,0.3,0,0.5c0,0.7-0.3,2.6-0.5,3.6c-0.3,1.4-0.7,2.8-1.3,4.1c-0.2,0.4-0.4,0.9-0.5,1.3c-0.2,0.6-0.5,1.2-1,1.7   c-0.4,0.5-1.1,0.8-1.7,0.7c-0.3,0-0.7-0.2-0.8-0.5c-0.1-0.2,0-0.5,0.1-0.7C8.8,47,9,46.8,9.2,46.7c0.1-0.1,0.2-0.1,0.3-0.2   c0.1-0.1,0.1-0.2,0.1-0.4c0-0.1-0.1-0.2-0.3-0.3c-0.1,0-0.3,0-0.4,0c-0.4,0.1-0.7,0.2-1,0.4c-0.3,0.2-0.4,0.6-0.4,1   c0,0.4,0.3,0.8,0.7,1.1c0.7,0.5,1.5,0.6,2.3,0.5c2-0.2,2.9-2.1,3.8-3.7C15.2,43.5,15.6,40.9,15.9,39.3"></path>		<path class="st0" d="M24.9,32.2c0,0,0.6-1.2,1.6-1.2c0.4,0.1,0.5,0.3,0.4,0.4c-0.1,0.2-1.1,0.8-1.5,1.3   C25.2,32.9,24.7,32.5,24.9,32.2"></path>		<path class="st0" d="M32.1,34c0,0-0.3,1.2-0.2,3.5c0.1,1.3,1,1.1,1.4,0.9c0.7-0.4,1.9-6,2.2-5.8c0.1,0-0.6,1.9-0.3,4.1   c0.2,1.1,0.6,1.8,1.5,1.4c0.9-0.5,1.5-1.1,1.7-1.8c0-0.3-0.1-0.7-0.2-0.5c-0.2,0.7-0.7,1.2-1.5,1.6c-0.2,0,0-0.9,0-1.6   c0.1-0.7,0.3-2,0.5-2.7c0.2-0.8-1.7-1.8-2.2-0.2c-0.6,1.5-1.5,4.3-1.6,4.5c-0.1,0.2-0.2-2,0.5-5.1c0.6-2.7,1-4-0.2-4.3   c-0.3-0.1-0.4,0.1-0.5,0.3C33.1,28.4,32.3,33.6,32.1,34"></path>		<path class="st0" d="M32.4,35.4c0,0,0.5-3.2,0.4-2.9c-0.2,0.3-0.2,1.8-1.5,4.3C31.2,37,30.6,38,30,38.4c-0.6,0.5-1-0.3-1-0.6   c-0.1-1.6,0.8-4,1.7-4.5c0.3-0.1,0.4-0.1,0.7-0.1c0,0,0.3,0,0.1-0.2c-0.6-0.9-1.4-0.6-1.5-0.5c-0.1,0.1-1.7,1.1-1.8,4.6   c0,1,0.5,1.8,1.1,1.9C31.1,39.4,32.4,35.4,32.4,35.4"></path>		<path class="st0" d="M26.9,32.8c-0.3,0-0.9-0.1-1.1,1l-0.1,0.6c0,0.3-1.2,3.6-1.4,4.2c-1.1,1.8-0.8-3.4,0.7-4.9   c0.3-0.3,0-0.4-0.1-0.5c-0.2-0.1-0.5-0.1-0.5-0.1c-0.3,0-0.5,0.1-0.6,0.1c-0.1,0-1.4,0.8-1.4,5c0,1.1,0.7,1.6,1.1,1.5   c0.3-0.1,0.7,0.2,1.8-3c0,0.7-0.4,2.2,0.2,2.4c1.2,0.5,2.3,0,3.3-3.1c0-0.1-0.2-0.2-0.2-0.1c0,0.1-0.3,0.7-0.4,1   c-0.5,1.2-1.5,1.7-1.7,1.6c-0.2-0.1-0.3-0.3,0.1-2.7c0.3-1.3,0.6-2,0.8-2.4C27.4,33.1,27.5,32.9,26.9,32.8"></path>		<path class="st0" d="M23.4,35.8c-0.3,0.7-2.7,4.6-2.7,3.7c0.2-3.4,1.4-4.5,1.4-4.7c-0.9-0.9-1.2-0.4-1.2-0.4l-0.3,0.5   c0,0-0.8-1.4-1.5-1.2c-1.4,0.4-2.1,3-2.3,3.5c-0.1,0.6-0.2,1-0.2,1.4c-0.2,1.5,0.4,1.8,0.6,1.9c0.2,0.1,0.5,0.2,0.8-0.1   c0.7-0.9,1.6-2.7,2-3.6c-0.1,0.4-0.6,2.6-0.4,3c0.5,0.4,1.4,0.6,1.8,0.1c0.7-0.7,1.8-2.8,2.2-3.6C23.7,35.8,23.6,35.9,23.4,35.8    M17.5,39.4c0.4-3,1.5-4.8,2.1-4.9c0.6,0,0.7,0.6,0.7,0.6c-0.1,0.7-1.1,2.7-1.9,4C18,39.8,17.4,40.7,17.5,39.4"></path>		<path class="st0" d="M44.6,32.2c-0.3,0.7-2.1,4.7-2.4,4.5c0.2-3.4,1.4-4.5,1.4-4.7c-0.9-0.9-1.2-0.4-1.2-0.4L42,32   c0,0-0.8-1.4-1.5-1.2c-1.4,0.4-2.1,3-2.3,3.5c-0.1,0.6-0.2,1-0.2,1.4c-0.2,1.5,0.3,1.8,0.4,2c0.2,0.2,0.5,0.3,0.8-0.1   c0.8-0.8,1.7-2.8,2.1-3.6c-0.1,0.4-0.6,2.6-0.4,3c0.5,0.4,1,0.6,1.5,0.1c0.7-0.7,1.9-3.7,2.2-4.4C44.9,32.2,44.7,32.2,44.6,32.2    M39,36.6c0.4-3,1.5-4.8,2.2-4.9c0.6,0,0.7,0.6,0.7,0.6c-0.1,0.7-1.1,2.7-1.9,4C39.5,37,38.8,37.9,39,36.6"></path>		<path class="st0" d="M19.2,30.6l-0.5,0h0c-0.1,0-0.1,0-0.1,0.1l0,2v0c0,0.1,0,0.1,0.1,0.1h0l0.5,0c0.4,0,0.5-0.2,0.5-0.6l0-1.1   C19.7,30.8,19.6,30.6,19.2,30.6 M19.4,32.3c0,0.2-0.1,0.2-0.2,0.2l-0.2,0l0-1.6l0.2,0c0.1,0,0.2,0.1,0.2,0.2L19.4,32.3z"></path>		<path class="st0" d="M20.8,30.7C20.8,30.7,20.7,30.6,20.8,30.7l-0.1-0.1l-0.3,0c0,0-0.1,0-0.1,0.1l-0.3,2c0,0,0,0,0,0   c0,0.1,0,0.1,0.1,0.1l0.1,0c0.1,0,0.1,0,0.1-0.1l0-0.3c0,0,0,0,0,0l0.4,0c0,0,0,0,0,0c0,0,0,0.3,0,0.3c0,0,0,0.1,0.1,0.1   c0,0,0.2,0,0.2,0c0.1,0,0.1,0,0.1-0.1C21.1,32.8,20.8,30.7,20.8,30.7 M20.6,32.2L20.6,32.2l-0.3,0c0,0,0,0,0,0   c0,0,0.1-0.9,0.1-0.9c0,0,0,0,0,0c0,0,0,0,0,0L20.6,32.2C20.7,32.1,20.6,32.2,20.6,32.2"></path>		<path class="st0" d="M21.9,31.6c-0.2-0.2-0.3-0.3-0.3-0.5c0-0.2,0.1-0.2,0.2-0.2c0.1,0,0.2,0.1,0.2,0.2v0c0,0,0,0.1,0.1,0.1l0.1,0   c0.1,0,0.1-0.1,0.1-0.1h0c0-0.3-0.2-0.5-0.5-0.5c-0.3,0-0.5,0.2-0.5,0.6c0,0.3,0.1,0.4,0.4,0.7c0.2,0.2,0.3,0.3,0.3,0.5   c0,0.2-0.1,0.2-0.2,0.2c-0.1,0-0.2-0.1-0.2-0.2l0-0.1c0,0,0,0,0,0c0-0.1,0-0.1-0.1-0.1l0,0v0l-0.1,0c-0.1,0-0.1,0-0.1,0.1h0v0   c0,0.4,0.2,0.6,0.5,0.6c0.3,0,0.5-0.2,0.5-0.6C22.3,32.1,22.2,31.9,21.9,31.6"></path>		<path class="st0" d="M42.5,29.4l-0.3,0c-1.4,0-2.5-1.1-2.5-2.5l-0.1-7.6c0-1.4,1.1-2.5,2.5-2.5l0.3,0c1.4,0,2.5,1.1,2.5,2.4   l0.1,7.6C45,28.3,43.9,29.4,42.5,29.4 M42.1,18c-0.7,0-1.3,0.6-1.3,1.3l0.1,7.6c0,0.7,0.6,1.3,1.3,1.3l0.3,0   c0.7,0,1.3-0.6,1.3-1.3l-0.1-7.6c0-0.7-0.6-1.3-1.3-1.3L42.1,18z"></path>		<path class="st0" d="M28.8,29.5l-0.3,0c-1.4,0-2.5-1.1-2.5-2.5L26,19.5c0-1.4,1.1-2.5,2.4-2.5l0.3,0c1.4,0,2.5,1.1,2.5,2.4   l0.1,7.6C31.3,28.4,30.2,29.5,28.8,29.5 M28.4,18.2c-0.7,0-1.3,0.6-1.3,1.3l0.1,7.6c0,0.7,0.6,1.3,1.3,1.3l0.3,0   c0.7,0,1.3-0.6,1.3-1.3l-0.1-7.6c0-0.7-0.6-1.3-1.3-1.3L28.4,18.2z"></path>		<path class="st0" d="M17.2,22.9c0.6-0.5,0.9-1.4,0.9-2.6c0-2-0.9-3.1-2.5-3.1l-1.5,0l-0.6,0l-0.2,0c-0.2,0-0.3,0.2-0.3,0.3L13,29   h0c0,0,0,0,0,0c0,0.2,0.2,0.3,0.3,0.3v0l0.2,0l0.6,0l1.5,0c1.6,0,2.6-1.2,2.5-3.2l0-0.7C18.3,24.3,17.9,23.4,17.2,22.9 M17.1,20.2   c0,2.1-1,2.1-1.4,2.1l-1.4,0h0c-0.1,0-0.1,0-0.1-0.1l0-4c0,0,0,0,0,0c0-0.1,0-0.1,0.1-0.1c0,0,0,0,0,0l1.4,0   C16,18.2,17,18.1,17.1,20.2 M17.2,26.2c0,0.8-0.2,2.1-1.5,2.1l-1.4,0c0,0-0.1,0-0.1-0.1l0-4.7c0,0,0,0,0,0c0-0.1,0-0.1,0.1-0.1   c0,0,0,0,0,0l1.4,0c1.3,0,1.5,1.3,1.5,2.1L17.2,26.2z"></path>		<path class="st0" d="M24.9,28.1L24.9,28.1l-3.7,0c-0.1,0-0.1,0-0.1-0.1v0L21,17.4c0-0.2-0.2-0.3-0.3-0.3c0,0,0,0,0,0l-0.5,0   c-0.2,0-0.3,0.2-0.3,0.3h0L20,29c0,0.2,0.2,0.3,0.3,0.3l0.8,0l3.8,0c0.2,0,0.3-0.2,0.3-0.3l0-0.5C25.2,28.2,25.1,28.1,24.9,28.1"></path>		<path class="st0" d="M38.1,19.4c0-1.4-1.1-2.5-2.5-2.4l-0.3,0c-1.4,0-2.5,1.1-2.5,2.5l0.1,7.6c0,0.4,0.1,0.6,0.2,0.9   c0,0,0.1-0.2,0.4-0.2c0.3,0,0.7,0.3,0.9,0.5c0.2,0.3,0.3,0.6,0.2,1.1c0.3,0.1,0.5,0.1,0.8,0.2l0.3,0c1.4,0,2.5-1.1,2.5-2.5l0-1.1   c0-0.2-0.2-0.3-0.3-0.3l-0.5,0h0c-0.2,0-0.3,0.2-0.3,0.3c0,0,0,0,0,0h0l0,1c0,0.7-0.6,1.3-1.3,1.3l-0.3,0c-0.7,0-1.3-0.6-1.3-1.3   l-0.1-7.6c0-0.7,0.6-1.3,1.3-1.3l0.3,0c0.7,0,1.3,0.6,1.3,1.3l0,1c0,0,0,0,0,0c0,0.2,0.2,0.3,0.3,0.3c0,0,0,0,0,0l0.5,0v0   c0.2,0,0.3-0.2,0.3-0.3c0,0,0,0,0,0h0L38.1,19.4z"></path>	</g></g></svg>