<svg xmlns="http://www.w3.org/2000/svg" id="Layer_1" viewBox="0 0 56.7 56.7"><defs><style>      .st0 {        fill: #d81f26;      }    </style></defs><path class="st0" d="M9.5,34.5c-.8.1-1.6.2-2.4.3l-2.5-7.4v7.7c-.8,0-1.5.2-2.2.3v-14h2.1l2.9,8v-8h2.2v13.1h0ZM13.8,26.5c.9,0,2.2,0,2.9,0v2.2c-1,0-2.1,0-2.9,0v3.3c1.3,0,2.6-.2,3.9-.2v2.1l-6.1.5v-13h6.1v2.2h-3.9s0,2.9,0,2.9ZM25.9,23.5h-2.3v10.1c-.7,0-1.5,0-2.2,0v-10.1h-2.3v-2.2h6.7s0,2.2,0,2.2ZM29.4,26.3h3v2.2h-3v5h-2.2v-12.2h6.1v2.2h-4v2.8ZM37,31.6c1.2,0,2.5.1,3.7.2v2.2c-2-.1-3.9-.2-5.9-.3v-12.3h2.2v10.2h0ZM42.6,34.1c.7,0,1.4,0,2.2.2v-12.9h-2.2v12.8ZM54.3,21.3l-2.8,6.7,2.8,7.4c-.8-.1-1.6-.3-2.5-.4l-1.6-4.1-1.6,3.7c-.8-.1-1.6-.2-2.4-.3l2.8-6.4-2.6-6.6h2.4l1.4,3.7,1.5-3.7h2.4Z"></path></svg>