<svg xmlns="http://www.w3.org/2000/svg" xmlns:xlink="http://www.w3.org/1999/xlink" id="Layer_1" x="0px" y="0px" viewBox="0 0 56.7 56.7" style="enable-background:new 0 0 56.7 56.7;" xml:space="preserve"><style type="text/css">	.st0{fill:#6FBC49;}	.st1{fill:#00AE9C;}	.st2{fill:#B8D236;}	.st3{fill:#013B43;}</style><g>	<path class="st0" d="M1.3,22.2c-0.1,0-0.2,0-0.3,0.1c-0.2,0.1-0.4,0.4-0.4,0.7c0,0.1,0,0.2,0.1,0.3l3.7,6.5l1.2-2.1l2-3.4l-1.2-2.1  L1.3,22.2L1.3,22.2z"></path>	<g>		<path class="st0" d="M1.3,22.2c-0.1,0-0.2,0-0.3,0.1c-0.2,0.1-0.4,0.4-0.4,0.7c0,0.1,0,0.2,0.1,0.3l3.7,6.5l1.2-2.1l2-3.4   l-1.2-2.1L1.3,22.2L1.3,22.2z"></path>	</g>	<path class="st1" d="M6.4,22.2l3.2,5.5h2.2H12l2.5-4.4c0-0.1,0.1-0.2,0.1-0.3c0-0.4-0.3-0.7-0.7-0.8H6.4L6.4,22.2z"></path>	<path class="st2" d="M11.8,27.7H5.6l-1.2,2.1L7,34.2c0.1,0.1,0.1,0.2,0.2,0.2c0.1,0.1,0.2,0.1,0.4,0.1c0.2,0,0.5-0.1,0.6-0.3  l3.7-6.5H11.8z"></path>	<path class="st3" d="M36.1,24.2L36.1,24.2c-2.5,0-4.1,1.9-4.1,4.3c0,2.3,1.4,4.2,4,4.2h0.1c2.5,0,4-1.7,4-4.3  C40.1,26.1,38.8,24.2,36.1,24.2 M36.1,30.9L36.1,30.9c-1.1,0-1.8-1-1.7-2.5c0-1.4,0.6-2.5,1.7-2.5c1.1,0,1.7,1.1,1.7,2.5  C37.8,29.9,37.2,30.9,36.1,30.9 M54.5,28.1L54.5,28.1c1-0.4,1.3-1.1,1.3-1.7c0-0.8-0.5-1.4-1.1-1.7c-0.5-0.3-1.1-0.4-2-0.4  c-0.2,0-0.3,0-0.5,0c-1,0-2.1,0.1-2.6,0.2v8.1c0.4,0.1,1.2,0.1,2.2,0.1c0.3,0,0.6,0,0.9,0c1.2-0.1,2-0.3,2.5-0.7  c0.6-0.4,0.9-1,0.9-1.8C56.1,29.1,55.5,28.4,54.5,28.1 M51.8,25.9c0.1,0,0.4,0,0.7,0c0.1,0,0.1,0,0.2,0c0.6,0,0.9,0.3,0.9,0.8  s-0.3,0.7-0.9,0.8c-0.1,0-0.3,0-0.5,0h-0.4V25.9z M52.7,31c-0.1,0-0.2,0-0.3,0c-0.3,0-0.5,0-0.6,0v-2h0.5c0.1,0,0.3,0,0.4,0  c0.6,0.1,1.1,0.4,1.1,0.9C53.8,30.6,53.3,30.9,52.7,31 M48.9,28.3c0-2.2-1.3-4.2-4-4.2h0c-2.5,0-4,1.9-4,4.3c0,2.3,1.4,4.2,4,4.2  h0.1C47.4,32.6,48.9,31,48.9,28.3 M44.9,30.9L44.9,30.9c-1.1,0-1.7-1-1.7-2.5c0-1.4,0.6-2.5,1.7-2.5c1.1,0,1.7,1.1,1.7,2.5  C46.6,29.9,46,30.9,44.9,30.9 M31.4,30.6c-0.3,0.1-0.9,0.2-1.5,0.2c-1.5,0-2.4-0.9-2.4-2.4c0-1.7,1.1-2.4,2.4-2.4  c0.7,0,1.3,0.2,1.5,0.3c0.4-0.9,0.3-2.1-1.6-2.1c-2.5,0-4.6,1.5-4.6,4.4c0,2.2,1.4,4.1,4.4,4.1c1,0,1.8-0.2,2.1-0.3L31.4,30.6z   M22,24.3v8.2h2.2v-6.9C24.2,24.6,23.6,24.3,22,24.3 M18.7,27.6c-1-0.4-1.5-0.5-1.5-1c0-0.4,0.4-0.6,1-0.6c0.8,0,1.6,0.3,1.8,0.4  c0.3-0.8,0.5-2.2-1.8-2.2c-2.1,0-3.3,1.1-3.3,2.6c0,1.2,0.9,2,2.3,2.5c0.9,0.3,1.3,0.5,1.3,0.9c0,0.4-0.4,0.7-1.1,0.7  c-0.8,0-1.6-0.2-2.1-0.5L15,32.1c0.5,0.2,1.4,0.5,2.4,0.5c2.4,0,3.5-1.2,3.5-2.6C20.9,28.9,20.2,28.1,18.7,27.6"></path>	<g>		<path class="st1" d="M14.5,23.3c0-0.1,0.1-0.2,0.1-0.3c0-0.3-0.2-0.5-0.4-0.7c-0.1-0.1-0.2-0.1-0.3-0.1l-7.5,0l1.2,2.1l2,3.4   l2.4,0L14.5,23.3z"></path>	</g>	<g>		<path class="st2" d="M7,34.2c0.1,0.1,0.1,0.2,0.2,0.2c0.2,0.1,0.5,0.1,0.8,0c0.1-0.1,0.2-0.1,0.2-0.2l3.7-6.5H9.6l-3.9,0l-1.2,2.1   L7,34.2z"></path>	</g></g></svg>