<svg xmlns="http://www.w3.org/2000/svg" xmlns:xlink="http://www.w3.org/1999/xlink" id="layer" x="0px" y="0px" viewBox="0 0 652 652" style="enable-background:new 0 0 652 652;" xml:space="preserve"><style type="text/css">	.st0{fill:url(#SVGID_1_);}	.st1{fill:url(#SVGID_00000149381133622659795670000006301735403867729076_);}	.st2{fill:url(#SVGID_00000044152828817459470680000008987108513986031514_);}	.st3{fill:url(#SVGID_00000049189522156546291360000010765821240334837639_);}	.st4{fill:url(#SVGID_00000034810508517145017610000004858213152385790852_);}	.st5{fill:url(#SVGID_00000003820335760980262310000016786990166351912892_);}	.st6{fill:url(#SVGID_00000066512782772785012450000003693888073277167779_);}	.st7{fill:url(#SVGID_00000103981110624340818560000013236295661455216263_);}	.st8{fill:url(#SVGID_00000119818147093193581660000003368588306727367851_);}	.st9{fill:url(#SVGID_00000176742770296651360890000010158580471353692821_);}	.st10{fill:url(#SVGID_00000084530760949986121200000012757974632283458197_);}	.st11{fill:url(#SVGID_00000145033814986225336690000016831310943107063945_);}	.st12{fill:url(#SVGID_00000176722416866720575200000010157960404253954956_);}	.st13{fill:url(#SVGID_00000110458029760868362830000006212324682772101249_);}	.st14{fill:url(#SVGID_00000161608449491767928490000002370777706712192667_);}	.st15{fill:url(#SVGID_00000145035942395173109800000004895051504205117837_);}	.st16{fill:url(#SVGID_00000021085514388867385790000000333305907643966351_);}	.st17{fill:url(#SVGID_00000062191862780467753630000017712874336958768007_);}	.st18{fill:url(#SVGID_00000084530301621909785280000011664279853446797713_);}	.st19{fill:url(#SVGID_00000146472247573178417210000005111719722696270525_);}	.st20{fill:url(#SVGID_00000149363925292120437050000009836637209870049441_);}	.st21{fill:url(#SVGID_00000006666531403644822240000017387734779058476450_);}	.st22{fill:url(#SVGID_00000095299104235102938130000000110542026527706033_);}	.st23{fill:url(#SVGID_00000047040341875000039730000006064611735269973633_);}	.st24{fill:url(#SVGID_00000083073677497929020110000016566397126715127169_);}	.st25{fill:url(#SVGID_00000008844318686616331280000004544794743325068709_);}</style><g>	<linearGradient id="SVGID_1_" gradientUnits="userSpaceOnUse" x1="45.4366" y1="427.5866" x2="598.59" y2="427.5866">		<stop offset="0" style="stop-color:#CE1D5D"></stop>		<stop offset="1" style="stop-color:#801E5C"></stop>	</linearGradient>	<path class="st0" d="M74.5,427.6c0,1.5-0.3,2.9-0.8,4.2c-0.5,1.3-1.2,2.4-2.2,3.3c-0.9,0.9-2,1.6-3.3,2.2c-1.2,0.5-2.6,0.8-4.1,0.8  c-1.5,0-2.8-0.3-4.1-0.8c-1.3-0.5-2.3-1.2-3.3-2.2c-0.9-0.9-1.6-2-2.2-3.3c-0.5-1.3-0.8-2.6-0.8-4.2c0-1.5,0.3-2.9,0.8-4.2  c0.5-1.3,1.2-2.4,2.2-3.3c0.9-0.9,2-1.6,3.3-2.2c1.3-0.5,2.6-0.8,4.1-0.8c1.5,0,2.8,0.3,4.1,0.8c1.3,0.5,2.3,1.2,3.3,2.2  c0.9,0.9,1.6,2,2.2,3.3C74.2,424.7,74.5,426.1,74.5,427.6 M72.3,427.6c0-1.1-0.2-2.2-0.6-3.2c-0.4-1-0.9-1.9-1.6-2.7  c-0.7-0.8-1.5-1.4-2.5-1.9c-1-0.5-2.1-0.7-3.4-0.7c-1.3,0-2.4,0.2-3.4,0.7c-1,0.5-1.9,1.1-2.6,1.9c-0.7,0.8-1.2,1.7-1.6,2.7  c-0.4,1-0.6,2.1-0.6,3.2c0,1.1,0.2,2.2,0.6,3.2c0.4,1,0.9,1.9,1.6,2.7c0.7,0.8,1.5,1.4,2.6,1.9c1,0.5,2.1,0.7,3.4,0.7  c1.3,0,2.4-0.2,3.4-0.7c1-0.5,1.9-1.1,2.5-1.9c0.7-0.8,1.2-1.7,1.6-2.7C72.1,429.8,72.3,428.7,72.3,427.6"></path>			<linearGradient id="SVGID_00000124162422699031098550000008623587425740025270_" gradientUnits="userSpaceOnUse" x1="45.4366" y1="427.5898" x2="598.59" y2="427.5898">		<stop offset="0" style="stop-color:#CE1D5D"></stop>		<stop offset="1" style="stop-color:#801E5C"></stop>	</linearGradient>	<path style="fill:url(#SVGID_00000124162422699031098550000008623587425740025270_);" d="M101.5,417.7h5.9c0.8,0,1.6,0.1,2.4,0.2  c0.8,0.2,1.4,0.4,2,0.8c0.6,0.4,1.1,0.9,1.4,1.5c0.4,0.6,0.5,1.4,0.5,2.3c0,1.1-0.3,2-0.9,2.8c-0.6,0.8-1.5,1.3-2.6,1.5v0.1  c1.4,0.1,2.5,0.6,3.3,1.5c0.8,0.9,1.2,2,1.2,3.5c0,0.3-0.1,0.8-0.2,1.4c-0.2,0.6-0.5,1.2-1,1.8c-0.5,0.6-1.2,1.1-2.2,1.6  c-1,0.4-2.2,0.7-3.8,0.7h-6V417.7z M103.5,426.4h4c0.5,0,1-0.1,1.4-0.2c0.5-0.1,0.9-0.3,1.3-0.6c0.4-0.3,0.7-0.6,0.9-1.1  c0.2-0.4,0.4-1,0.4-1.6c0-0.2,0-0.5-0.1-0.9c-0.1-0.4-0.3-0.7-0.6-1.1c-0.3-0.4-0.7-0.7-1.3-1c-0.6-0.3-1.3-0.4-2.3-0.4h-3.8V426.4  z M103.5,435.6h3.8c0.7,0,1.4-0.1,2-0.2c0.6-0.1,1.2-0.4,1.6-0.7c0.5-0.3,0.8-0.7,1.1-1.2c0.3-0.5,0.4-1,0.4-1.7  c0-1.3-0.4-2.3-1.3-2.9c-0.8-0.6-2.1-0.9-3.7-0.9h-4.1V435.6z"></path>			<linearGradient id="SVGID_00000067946607210384691210000007315656551313027236_" gradientUnits="userSpaceOnUse" x1="45.4366" y1="427.5891" x2="598.59" y2="427.5891">		<stop offset="0" style="stop-color:#CE1D5D"></stop>		<stop offset="1" style="stop-color:#801E5C"></stop>	</linearGradient>	<path style="fill:url(#SVGID_00000067946607210384691210000007315656551313027236_);" d="M127.7,437.5h-2.3l8.6-19.7h2l8.6,19.7  h-2.3l-2.2-5.2h-10.1L127.7,437.5z M130.7,430.4h8.6l-4.3-10.4L130.7,430.4z"></path>			<linearGradient id="SVGID_00000043438615078857257570000002762543552938039430_" gradientUnits="userSpaceOnUse" x1="45.4366" y1="427.5882" x2="598.59" y2="427.5882">		<stop offset="0" style="stop-color:#CE1D5D"></stop>		<stop offset="1" style="stop-color:#801E5C"></stop>	</linearGradient>	<polygon style="fill:url(#SVGID_00000043438615078857257570000002762543552938039430_);" points="169.5,434.4 169.6,434.4   169.6,417.7 171.6,417.7 171.6,437.5 169,437.5 157.3,420.6 157.2,420.6 157.2,437.5 155.2,437.5 155.2,417.7 157.7,417.7  "></polygon>			<linearGradient id="SVGID_00000092429626155288945210000010998267157576785581_" gradientUnits="userSpaceOnUse" x1="45.4366" y1="427.5875" x2="598.59" y2="427.5875">		<stop offset="0" style="stop-color:#CE1D5D"></stop>		<stop offset="1" style="stop-color:#801E5C"></stop>	</linearGradient>	<path style="fill:url(#SVGID_00000092429626155288945210000010998267157576785581_);" d="M199.9,434.3c-0.3,0.5-0.8,1-1.2,1.4  c-0.5,0.4-1.1,0.8-1.7,1.2c-0.6,0.3-1.3,0.6-2,0.8c-0.7,0.2-1.5,0.3-2.3,0.3c-1.5,0-2.8-0.3-4.1-0.8c-1.3-0.5-2.3-1.2-3.3-2.2  c-0.9-0.9-1.6-2-2.2-3.3c-0.5-1.3-0.8-2.6-0.8-4.2c0-1.5,0.3-2.9,0.8-4.2c0.5-1.3,1.2-2.4,2.2-3.3c0.9-0.9,2-1.6,3.3-2.2  c1.3-0.5,2.6-0.8,4.1-0.8c1.2,0,2.5,0.2,3.7,0.7c1.2,0.5,2.3,1.3,3.2,2.4l-1.8,1.3c-0.2-0.3-0.5-0.6-0.8-1  c-0.4-0.3-0.8-0.6-1.2-0.8c-0.5-0.2-0.9-0.4-1.5-0.6c-0.5-0.1-1-0.2-1.6-0.2c-1.3,0-2.4,0.2-3.4,0.7c-1,0.5-1.9,1.1-2.6,1.9  c-0.7,0.8-1.2,1.7-1.6,2.7c-0.4,1-0.6,2.1-0.6,3.2c0,1.1,0.2,2.2,0.6,3.2c0.4,1,0.9,1.9,1.6,2.7c0.7,0.8,1.5,1.4,2.6,1.9  c1,0.5,2.1,0.7,3.4,0.7c0.5,0,1,0,1.5-0.1c0.5-0.1,1-0.2,1.5-0.5c0.5-0.2,1-0.5,1.4-0.9c0.4-0.4,0.8-0.9,1.2-1.4L199.9,434.3z"></path>			<linearGradient id="SVGID_00000174601212009046006550000016514037655808994968_" gradientUnits="userSpaceOnUse" x1="45.4366" y1="427.5866" x2="598.59" y2="427.5866">		<stop offset="0" style="stop-color:#CE1D5D"></stop>		<stop offset="1" style="stop-color:#801E5C"></stop>	</linearGradient>	<path style="fill:url(#SVGID_00000174601212009046006550000016514037655808994968_);" d="M231.1,427.6c0,1.5-0.3,2.9-0.8,4.2  c-0.5,1.3-1.2,2.4-2.2,3.3c-0.9,0.9-2,1.6-3.3,2.2c-1.3,0.5-2.6,0.8-4.1,0.8c-1.5,0-2.8-0.3-4.1-0.8c-1.3-0.5-2.3-1.2-3.3-2.2  c-0.9-0.9-1.6-2-2.2-3.3c-0.5-1.3-0.8-2.6-0.8-4.2c0-1.5,0.3-2.9,0.8-4.2c0.5-1.3,1.2-2.4,2.2-3.3c0.9-0.9,2-1.6,3.3-2.2  c1.3-0.5,2.6-0.8,4.1-0.8c1.5,0,2.8,0.3,4.1,0.8c1.3,0.5,2.3,1.2,3.3,2.2c0.9,0.9,1.6,2,2.2,3.3  C230.9,424.7,231.1,426.1,231.1,427.6 M229,427.6c0-1.1-0.2-2.2-0.6-3.2c-0.4-1-0.9-1.9-1.6-2.7c-0.7-0.8-1.5-1.4-2.5-1.9  c-1-0.5-2.1-0.7-3.4-0.7c-1.3,0-2.4,0.2-3.4,0.7c-1,0.5-1.8,1.1-2.5,1.9c-0.7,0.8-1.2,1.7-1.6,2.7c-0.4,1-0.6,2.1-0.6,3.2  c0,1.1,0.2,2.2,0.6,3.2c0.4,1,0.9,1.9,1.6,2.7c0.7,0.8,1.5,1.4,2.5,1.9c1,0.5,2.1,0.7,3.4,0.7c1.3,0,2.4-0.2,3.4-0.7  c1-0.5,1.9-1.1,2.5-1.9c0.7-0.8,1.2-1.7,1.6-2.7C228.8,429.8,229,428.7,229,427.6"></path>			<linearGradient id="SVGID_00000002343522044044882190000001248223917152659381_" gradientUnits="userSpaceOnUse" x1="45.4366" y1="427.5898" x2="598.59" y2="427.5898">		<stop offset="0" style="stop-color:#CE1D5D"></stop>		<stop offset="1" style="stop-color:#801E5C"></stop>	</linearGradient>	<path style="fill:url(#SVGID_00000002343522044044882190000001248223917152659381_);" d="M251.9,417.7h6.5c1.2,0,2.5,0.2,3.7,0.6  c1.2,0.4,2.4,1,3.3,1.9c1,0.8,1.8,1.9,2.4,3.1c0.6,1.2,0.9,2.7,0.9,4.3c0,1.7-0.3,3.1-0.9,4.3c-0.6,1.2-1.4,2.3-2.4,3.1  c-1,0.8-2.1,1.4-3.3,1.9c-1.2,0.4-2.5,0.6-3.7,0.6h-6.5V417.7z M253.9,435.6h3.9c1.5,0,2.8-0.2,3.9-0.7c1.1-0.5,2-1.1,2.8-1.8  c0.7-0.8,1.3-1.6,1.6-2.6c0.3-1,0.5-2,0.5-3c0-1-0.2-2-0.5-3c-0.4-1-0.9-1.8-1.6-2.6c-0.7-0.8-1.7-1.4-2.8-1.8  c-1.1-0.5-2.4-0.7-3.9-0.7h-3.9V435.6z"></path>			<linearGradient id="SVGID_00000084522563771155619350000009910187864271685793_" gradientUnits="userSpaceOnUse" x1="45.4366" y1="427.5891" x2="598.59" y2="427.5891">		<stop offset="0" style="stop-color:#CE1D5D"></stop>		<stop offset="1" style="stop-color:#801E5C"></stop>	</linearGradient>	<path style="fill:url(#SVGID_00000084522563771155619350000009910187864271685793_);" d="M280.5,437.5h-2.3l8.6-19.7h2l8.6,19.7  h-2.3l-2.2-5.2h-10.1L280.5,437.5z M283.4,430.4h8.6l-4.3-10.4L283.4,430.4z"></path>			<linearGradient id="SVGID_00000119088987218641071120000001358455389241070224_" gradientUnits="userSpaceOnUse" x1="45.4366" y1="368.3426" x2="598.59" y2="368.3426">		<stop offset="0" style="stop-color:#CE1D5D"></stop>		<stop offset="1" style="stop-color:#801E5C"></stop>	</linearGradient>			<rect x="49.8" y="367.1" style="fill:url(#SVGID_00000119088987218641071120000001358455389241070224_);" width="552.4" height="2.4"></rect>	<g>					<linearGradient id="SVGID_00000088834682983082741390000000641355173013146795_" gradientUnits="userSpaceOnUse" x1="45.4366" y1="427.5949" x2="598.59" y2="427.5949">			<stop offset="0" style="stop-color:#CE1D5D"></stop>			<stop offset="1" style="stop-color:#801E5C"></stop>		</linearGradient>		<path style="fill:url(#SVGID_00000088834682983082741390000000641355173013146795_);" d="M344.3,427.6c0,4.2-3.4,7.6-7.6,7.6   c-4.2,0-7.6-3.4-7.6-7.6c0-4.2,3.4-7.6,7.6-7.6C340.9,419.9,344.3,423.4,344.3,427.6"></path>					<linearGradient id="SVGID_00000152257698520759206100000012519101374919393417_" gradientUnits="userSpaceOnUse" x1="45.4366" y1="427.6969" x2="598.59" y2="427.6969">			<stop offset="0" style="stop-color:#CE1D5D"></stop>			<stop offset="1" style="stop-color:#801E5C"></stop>		</linearGradient>		<path style="fill:url(#SVGID_00000152257698520759206100000012519101374919393417_);" d="M352,420.3c-3.3,0.8-5.8,3.8-5.8,7.4   c0,3.6,2.5,6.6,5.8,7.4c1.1-2.3,1.7-4.8,1.7-7.5C353.7,425,353.1,422.5,352,420.3"></path>					<linearGradient id="SVGID_00000118390966404236915420000004857085751553888657_" gradientUnits="userSpaceOnUse" x1="45.4366" y1="427.5954" x2="598.59" y2="427.5954">			<stop offset="0" style="stop-color:#CE1D5D"></stop>			<stop offset="1" style="stop-color:#801E5C"></stop>		</linearGradient>		<path style="fill:url(#SVGID_00000118390966404236915420000004857085751553888657_);" d="M327.3,427.6c0-3.6-2.5-6.6-5.8-7.4   c-1.1,2.2-1.7,4.8-1.7,7.4c0,2.7,0.6,5.2,1.7,7.4C324.8,434.2,327.3,431.2,327.3,427.6"></path>					<linearGradient id="SVGID_00000109004979053839923790000002336917457162882459_" gradientUnits="userSpaceOnUse" x1="45.4366" y1="439.6486" x2="598.59" y2="439.6486">			<stop offset="0" style="stop-color:#CE1D5D"></stop>			<stop offset="1" style="stop-color:#801E5C"></stop>		</linearGradient>		<path style="fill:url(#SVGID_00000109004979053839923790000002336917457162882459_);" d="M341.4,435.8c-3.2,1.8-4.6,5.4-3.6,8.8   c5.3-0.4,10-3.2,12.9-7.4C348.3,434.7,344.5,434,341.4,435.8"></path>					<linearGradient id="SVGID_00000022527350259531148760000001793377890957531064_" gradientUnits="userSpaceOnUse" x1="45.4366" y1="415.508" x2="598.59" y2="415.508">			<stop offset="0" style="stop-color:#CE1D5D"></stop>			<stop offset="1" style="stop-color:#801E5C"></stop>		</linearGradient>		<path style="fill:url(#SVGID_00000022527350259531148760000001793377890957531064_);" d="M332.1,419.4c3.1-1.8,4.5-5.4,3.6-8.7   c-5.4,0.3-10.1,3.1-12.9,7.3C325.1,420.5,328.9,421.1,332.1,419.4"></path>					<linearGradient id="SVGID_00000147200874064614748150000002923616230243773093_" gradientUnits="userSpaceOnUse" x1="45.4366" y1="439.6027" x2="598.59" y2="439.6027">			<stop offset="0" style="stop-color:#CE1D5D"></stop>			<stop offset="1" style="stop-color:#801E5C"></stop>		</linearGradient>		<path style="fill:url(#SVGID_00000147200874064614748150000002923616230243773093_);" d="M332,435.8c-3.1-1.9-7-1.2-9.4,1.3   c2.8,4.2,7.5,7.1,12.9,7.5C336.4,441.2,335.1,437.6,332,435.8"></path>					<linearGradient id="SVGID_00000076586363878161450230000017309646498733275023_" gradientUnits="userSpaceOnUse" x1="45.4366" y1="415.643" x2="598.59" y2="415.643">			<stop offset="0" style="stop-color:#CE1D5D"></stop>			<stop offset="1" style="stop-color:#801E5C"></stop>		</linearGradient>		<path style="fill:url(#SVGID_00000076586363878161450230000017309646498733275023_);" d="M341.5,419.5c3.1,1.8,7,1.2,9.4-1.2   c-2.8-4.2-7.4-7.1-12.8-7.6C337.1,414,338.4,417.7,341.5,419.5"></path>					<linearGradient id="SVGID_00000168075281899578316430000005878331727718751367_" gradientUnits="userSpaceOnUse" x1="45.4366" y1="430.1625" x2="598.59" y2="430.1625">			<stop offset="0" style="stop-color:#CE1D5D"></stop>			<stop offset="1" style="stop-color:#801E5C"></stop>		</linearGradient>		<path style="fill:url(#SVGID_00000168075281899578316430000005878331727718751367_);" d="M413,422.5c-1,0-1.8,0.6-2.2,1.5   l-1.2,2.9l16,0l-0.6,1.5l-13.8,0c-2.1,0-3.9,1.3-4.7,3.2l-1.4,3.4c-0.6,1.4,0.5,3,2,3l17.1,0c1.7,0,3.1-1,3.8-2.6l3.7-9.2   c0.7-1.7-0.6-3.6-2.5-3.6L413,422.5z M422.2,433.8l-10.8,0c-0.2,0-0.3-0.2-0.3-0.4l0.5-1.2c0.2-0.4,0.5-0.6,1-0.6h11.2l-0.6,1.5   C422.9,433.5,422.6,433.8,422.2,433.8"></path>					<linearGradient id="SVGID_00000134236951835321089680000007076327255319464860_" gradientUnits="userSpaceOnUse" x1="45.4366" y1="430.1537" x2="598.59" y2="430.1537">			<stop offset="0" style="stop-color:#CE1D5D"></stop>			<stop offset="1" style="stop-color:#801E5C"></stop>		</linearGradient>		<path style="fill:url(#SVGID_00000134236951835321089680000007076327255319464860_);" d="M437.5,427.1l-4.3,10.8h6   c1.2-2.7,3.5-8.1,4.4-10.2c0.2-0.5,0.7-0.9,1.3-0.9h7.4c0.7,0,1.4-0.4,1.6-1.1l1.4-3.3l-11.1,0   C441.3,422.4,438.6,424.3,437.5,427.1"></path>					<linearGradient id="SVGID_00000108276473810813486260000016817823547186430380_" gradientUnits="userSpaceOnUse" x1="45.4366" y1="430.1659" x2="598.59" y2="430.1659">			<stop offset="0" style="stop-color:#CE1D5D"></stop>			<stop offset="1" style="stop-color:#801E5C"></stop>		</linearGradient>		<path style="fill:url(#SVGID_00000108276473810813486260000016817823547186430380_);" d="M474,436.7l1.5-3.5l-12.8,0   c-0.3,0-0.4-0.3-0.3-0.5l2.2-5.1c0.2-0.5,0.7-0.8,1.2-0.8l11.2,0c0.7,0,1.3-0.4,1.6-1l1.5-3.4l-13.9,0c-3.2,0-6,1.9-7.3,4.8   l-2.7,6.1c-0.9,2.1,0.6,4.5,3,4.5l13.2,0C473,437.9,473.7,437.4,474,436.7"></path>					<linearGradient id="SVGID_00000073001502201908895920000009168819776769245319_" gradientUnits="userSpaceOnUse" x1="45.4366" y1="430.175" x2="598.59" y2="430.175">			<stop offset="0" style="stop-color:#CE1D5D"></stop>			<stop offset="1" style="stop-color:#801E5C"></stop>		</linearGradient>		<path style="fill:url(#SVGID_00000073001502201908895920000009168819776769245319_);" d="M483.9,427.1l-2.7,6.2   c-0.9,2.2,0.6,4.6,3,4.6l11.2,0c3.4,0,6.6-2,7.9-5.2l2.6-5.9c0.9-2-0.6-4.3-2.8-4.3l-12.1,0C488,422.5,485.2,424.3,483.9,427.1    M496.4,433.2l-8.6,0c-0.2,0-0.4-0.2-0.3-0.4l2.2-5.2c0.2-0.5,0.6-0.7,1.1-0.7l8.6,0c0.2,0,0.4,0.2,0.3,0.4l-2.2,5.2   C497.3,432.9,496.8,433.2,496.4,433.2"></path>					<linearGradient id="SVGID_00000054232943343398453160000010488844110362879380_" gradientUnits="userSpaceOnUse" x1="45.4366" y1="430.175" x2="598.59" y2="430.175">			<stop offset="0" style="stop-color:#CE1D5D"></stop>			<stop offset="1" style="stop-color:#801E5C"></stop>		</linearGradient>		<path style="fill:url(#SVGID_00000054232943343398453160000010488844110362879380_);" d="M539.9,427.1l-2.7,6.2   c-0.9,2.2,0.6,4.6,3,4.6l11.2,0c3.4,0,6.6-2,7.9-5.2l2.6-5.9c0.9-2-0.6-4.3-2.8-4.3l-12.1,0C543.9,422.5,541.1,424.3,539.9,427.1    M552.3,433.2l-8.6,0c-0.2,0-0.4-0.2-0.3-0.4l2.2-5.2c0.2-0.5,0.6-0.7,1.1-0.7l8.6,0c0.2,0,0.4,0.2,0.3,0.4l-2.2,5.2   C553.2,432.9,552.8,433.2,552.3,433.2"></path>					<linearGradient id="SVGID_00000146496169925593413280000003199190440634761099_" gradientUnits="userSpaceOnUse" x1="45.4366" y1="430.175" x2="598.59" y2="430.175">			<stop offset="0" style="stop-color:#CE1D5D"></stop>			<stop offset="1" style="stop-color:#801E5C"></stop>		</linearGradient>		<path style="fill:url(#SVGID_00000146496169925593413280000003199190440634761099_);" d="M580,427.1l-2.7,6.2   c-0.9,2.2,0.6,4.6,3,4.6l11.2,0c3.4,0,6.6-2,7.9-5.2l2.6-5.9c0.9-2-0.6-4.3-2.8-4.3l-12.1,0C584,422.5,581.2,424.3,580,427.1    M592.4,433.2l-8.6,0c-0.2,0-0.4-0.2-0.3-0.4l2.2-5.2c0.2-0.5,0.6-0.7,1.1-0.7l8.6,0c0.2,0,0.4,0.2,0.3,0.4l-2.2,5.2   C593.3,432.9,592.9,433.2,592.4,433.2"></path>					<linearGradient id="SVGID_00000018221413752497624150000001153663289342974358_" gradientUnits="userSpaceOnUse" x1="45.4366" y1="432.6125" x2="598.59" y2="432.6125">			<stop offset="0" style="stop-color:#CE1D5D"></stop>			<stop offset="1" style="stop-color:#801E5C"></stop>		</linearGradient>		<path style="fill:url(#SVGID_00000018221413752497624150000001153663289342974358_);" d="M531.1,422.5l-12.1,0   c-3.1,0-5.9,1.8-7.1,4.6l-2.7,6.2c-0.1,0.1-0.1,0.3-0.1,0.4l-3.9,9h4.9c0.7,0,1.3-0.4,1.6-1l1.7-3.9l10.2,0c3.4,0,6.6-2,7.9-5.2   l2.6-5.9C534.8,424.7,533.3,422.5,531.1,422.5 M527.7,427.3l-2.2,5.2c-0.2,0.5-0.6,0.7-1.1,0.7l-8.6,0c-0.2,0-0.4-0.2-0.3-0.4   l2.2-5.2c0.2-0.5,0.6-0.7,1.1-0.7l8.6,0C527.6,426.9,527.8,427.1,527.7,427.3"></path>					<linearGradient id="SVGID_00000023265435094993695060000012535571925284945284_" gradientUnits="userSpaceOnUse" x1="45.4366" y1="427.3591" x2="598.59" y2="427.3591">			<stop offset="0" style="stop-color:#CE1D5D"></stop>			<stop offset="1" style="stop-color:#801E5C"></stop>		</linearGradient>		<path style="fill:url(#SVGID_00000023265435094993695060000012535571925284945284_);" d="M578.2,416.8l-9,21l-6,0l8.6-19.9   c0.3-0.7,1-1.1,1.7-1.1L578.2,416.8z"></path>					<linearGradient id="SVGID_00000167363474856065139350000005384382263579321001_" gradientUnits="userSpaceOnUse" x1="45.4366" y1="427.6086" x2="598.59" y2="427.6086">			<stop offset="0" style="stop-color:#CE1D5D"></stop>			<stop offset="1" style="stop-color:#801E5C"></stop>		</linearGradient>		<path style="fill:url(#SVGID_00000167363474856065139350000005384382263579321001_);" d="M375,422.9l-6.1,14.9   c0,0-0.1,0.1-0.1,0.1h-6.5c-0.1,0-0.1-0.1-0.1-0.2l8.1-20.3c0,0,0.1-0.1,0.1-0.1h8.5c1.3,0,2.4,0.9,2.5,2.1l1.5,11.5   c0,0.3,0.4,0.4,0.6,0.2l12.1-12.9c0.6-0.6,1.3-0.9,2.2-0.9h8.3c0.1,0,0.2,0.1,0.1,0.2l-8.1,20.3c0,0-0.1,0.1-0.1,0.1h-6.7   c-0.1,0-0.1-0.1-0.1-0.2l5.9-14.3c0.1-0.1-0.1-0.2-0.2-0.1l-10.6,11.2c-0.1,0.1-0.3,0.2-0.5,0.2h-8.7c-0.1,0-0.1,0-0.1-0.1   l-1.6-11.6C375.2,422.8,375.1,422.8,375,422.9"></path>	</g>			<linearGradient id="SVGID_00000060022362631789313000000006215264080586274710_" gradientUnits="userSpaceOnUse" x1="49.79" y1="271.0088" x2="602.21" y2="271.0088">		<stop offset="0" style="stop-color:#CE1D5D"></stop>		<stop offset="1" style="stop-color:#801E5C"></stop>	</linearGradient>	<path style="fill:url(#SVGID_00000060022362631789313000000006215264080586274710_);" d="M494.4,289.5c0-6.8-0.9-13-2.8-18.5  c-1.9-5.5-4.6-10.3-8-14.2c-3.5-3.9-7.7-7-12.7-9.1s-10.6-3.2-16.7-3.2c-6.6,0-12.8,1-18.6,3.2c-5.8,2.1-10.9,5.2-15.2,9.1  c-4.3,3.9-7.7,8.7-10.1,14.2c-2.5,5.5-3.7,11.7-3.7,18.5c0,6.8,1.2,13,3.7,18.5c2.5,5.5,5.8,10.3,10.1,14.2c4.3,3.9,9.4,7,15.2,9.1  c5.8,2.1,12,3.2,18.6,3.2c6.9,0,13.7-1.5,20.1-4.4s11.8-7.1,16.1-12.5L471.8,304c-2.2,3.1-4.9,5.6-7.9,7.5c-3,1.9-6.7,2.9-11,2.9  c-5.2,0-9.5-1.5-13.1-4.5c-3.5-3-5.8-7-6.9-12.1h61.4V289.5z M433,279.8c0.1-2.1,0.6-4.1,1.5-6.1c0.9-1.9,2.1-3.7,3.7-5.1  c1.6-1.5,3.5-2.7,5.7-3.6c2.2-0.9,4.8-1.4,7.8-1.4c4.8,0,8.8,1.6,11.8,4.8c3.1,3.2,4.5,7,4.4,11.5H433z M394,285.1v47.3h-26.5v-42  c0-2.5-0.1-5-0.3-7.7c-0.2-2.6-0.7-5.1-1.6-7.3c-0.9-2.2-2.2-4.1-4.1-5.5c-1.8-1.4-4.4-2.1-7.8-2.1c-3.4,0-6.2,0.6-8.3,1.9  c-2.1,1.2-3.7,2.9-4.8,4.9c-1.1,2.1-1.9,4.4-2.2,7c-0.3,2.6-0.5,5.3-0.5,8.1v42.7h-26.5v-85.8h25.4v11.7h0.3c0.8-1.7,2-3.3,3.5-4.9  c1.5-1.7,3.3-3.1,5.5-4.4c2.1-1.3,4.5-2.4,7.2-3.2c2.7-0.8,5.7-1.2,8.8-1.2c6.7,0,12.1,1,16.2,3.1c4.1,2.1,7.3,4.9,9.6,8.6  c2.3,3.6,3.9,8,4.7,12.9C393.5,274,394,279.4,394,285.1z M295.1,271c-2.5-5.5-5.8-10.3-10.1-14.2c-4.3-3.9-9.4-7-15.2-9.1  c-5.8-2.1-12-3.2-18.6-3.2c-6.6,0-12.8,1-18.6,3.2c-5.8,2.1-10.9,5.2-15.2,9.1c-4.3,3.9-7.7,8.7-10.2,14.2  c-2.5,5.5-3.7,11.7-3.7,18.5c0,6.8,1.2,13,3.7,18.5c2.5,5.5,5.9,10.3,10.2,14.2c4.3,3.9,9.3,7,15.2,9.1c5.8,2.1,12,3.2,18.6,3.2  c6.6,0,12.8-1.1,18.6-3.2c5.8-2.1,10.9-5.2,15.2-9.1c4.3-3.9,7.7-8.7,10.1-14.2c2.5-5.5,3.7-11.7,3.7-18.5  C298.8,282.7,297.6,276.5,295.1,271z M266.8,305.3c-3.7,4-8.9,6-15.6,6c-6.7,0-11.9-2-15.6-6c-3.7-4-5.5-9.2-5.5-15.7  c0-6.5,1.9-11.7,5.5-15.7c3.7-4,8.9-6,15.6-6c6.7,0,11.9,2,15.6,6c3.7,4,5.6,9.2,5.6,15.7C272.3,296,270.5,301.3,266.8,305.3z   M191,207.5v124.9h-27.5v-95.8h-0.4l-32.8,95.8h-21l-31.6-95.8h-0.4v95.8H49.8V207.5h41.7l28.8,81.5h0.3l29-81.5H191z M598.5,271  c-2.5-5.5-5.8-10.3-10.2-14.2c-4.3-3.9-9.3-7-15.2-9.1c-5.8-2.1-12-3.2-18.6-3.2c-6.6,0-12.8,1-18.6,3.2  c-5.8,2.1-10.9,5.2-15.2,9.1c-4.3,3.9-7.7,8.7-10.2,14.2c-2.5,5.5-3.7,11.7-3.7,18.5c0,6.8,1.2,13,3.7,18.5  c2.5,5.5,5.9,10.3,10.2,14.2c4.3,3.9,9.3,7,15.2,9.1c5.8,2.1,12,3.2,18.6,3.2c6.6,0,12.8-1.1,18.6-3.2c5.8-2.1,10.9-5.2,15.2-9.1  c4.3-3.9,7.7-8.7,10.2-14.2c2.5-5.5,3.7-11.7,3.7-18.5C602.2,282.7,601,276.5,598.5,271z M570.2,305.3c-3.7,4-8.9,6-15.6,6  c-6.7,0-11.9-2-15.6-6c-3.7-4-5.6-9.2-5.6-15.7c0-6.5,1.8-11.7,5.6-15.7c3.7-4,8.9-6,15.6-6c6.7,0,11.9,2,15.6,6  c3.7,4,5.6,9.2,5.6,15.7C575.7,296,573.9,301.3,570.2,305.3z"></path></g></svg>